<svg width="48" height="49" viewBox="0 0 48 49" fill="none" xmlns="http://www.w3.org/2000/svg">
<path fill-rule="evenodd" clip-rule="evenodd" d="M9.99924 10.1157C13.7125 6.40247 18.7487 4.31641 24 4.31641C29.2512 4.31641 34.2874 6.40247 38.0007 10.1157C41.7139 13.8289 43.7999 18.8651 43.7999 24.1164C43.7999 29.3677 41.7139 34.4039 38.0007 38.1171C34.2874 41.8303 29.2512 43.9164 24 43.9164C18.7487 43.9164 13.7125 41.8303 9.99924 38.1171C6.28602 34.4039 4.19995 29.3677 4.19995 24.1164C4.19995 18.8651 6.28602 13.8289 9.99924 10.1157ZM24 7.91641C19.7034 7.91641 15.5829 9.62319 12.5448 12.6613C9.50673 15.6994 7.79995 19.8199 7.79995 24.1164C7.79995 28.4129 9.50673 32.5334 12.5448 35.5715C15.5829 38.6096 19.7034 40.3164 24 40.3164C28.2965 40.3164 32.417 38.6096 35.4551 35.5715C38.4932 32.5335 40.2 28.4129 40.2 24.1164C40.2 19.8199 38.4932 15.6994 35.4551 12.6613C32.417 9.62319 28.2965 7.91641 24 7.91641ZM19.8301 12.7466C20.6178 11.9589 21.686 11.5164 22.8 11.5164H25.2C26.3139 11.5164 27.3821 11.9589 28.1698 12.7466C28.9575 13.5342 29.4 14.6025 29.4 15.7164V18.7164H32.4C33.5139 18.7164 34.5821 19.1589 35.3698 19.9466C36.1575 20.7342 36.6 21.8025 36.6 22.9164V25.3164C36.6 26.4303 36.1575 27.4986 35.3698 28.2863C34.5821 29.0739 33.5139 29.5164 32.4 29.5164H29.4V32.5164C29.4 33.6303 28.9575 34.6986 28.1698 35.4863C27.3821 36.2739 26.3139 36.7164 25.2 36.7164H22.8C21.686 36.7164 20.6178 36.2739 19.8301 35.4863C19.0425 34.6986 18.6 33.6303 18.6 32.5164V29.5164H15.6C14.486 29.5164 13.4178 29.0739 12.6301 28.2863C11.8424 27.4986 11.4 26.4303 11.4 25.3164V22.9164C11.4 21.8025 11.8425 20.7342 12.6301 19.9466C13.4178 19.1589 14.486 18.7164 15.6 18.7164H18.6V15.7164C18.6 14.6025 19.0425 13.5342 19.8301 12.7466ZM22.8 15.1164C22.6408 15.1164 22.4882 15.1796 22.3757 15.2921C22.2632 15.4047 22.2 15.5573 22.2 15.7164V20.5164C22.2 21.5105 21.3941 22.3164 20.4 22.3164H15.6C15.4408 22.3164 15.2882 22.3796 15.1757 22.4921C15.0632 22.6047 15 22.7573 15 22.9164V25.3164C15 25.4755 15.0632 25.6282 15.1757 25.7407C15.2882 25.8532 15.4408 25.9164 15.6 25.9164H20.4C21.3941 25.9164 22.2 26.7223 22.2 27.7164V32.5164C22.2 32.6755 22.2632 32.8281 22.3757 32.9407C22.4882 33.0532 22.6408 33.1164 22.8 33.1164H25.2C25.3591 33.1164 25.5117 33.0532 25.6242 32.9407C25.7367 32.8282 25.8 32.6755 25.8 32.5164V27.7164C25.8 26.7223 26.6058 25.9164 27.6 25.9164H32.4C32.5591 25.9164 32.7117 25.8532 32.8242 25.7407C32.9367 25.6282 33 25.4755 33 25.3164V22.9164C33 22.7573 32.9367 22.6047 32.8242 22.4921C32.7117 22.3796 32.5591 22.3164 32.4 22.3164H27.6C26.6058 22.3164 25.8 21.5105 25.8 20.5164V15.7164C25.8 15.5573 25.7367 15.4047 25.6242 15.2921C25.5117 15.1796 25.3591 15.1164 25.2 15.1164H22.8Z" fill="#006FB9"/>
</svg>
