<svg width="48" height="49" viewBox="0 0 48 49" fill="none" xmlns="http://www.w3.org/2000/svg">
<path fill-rule="evenodd" clip-rule="evenodd" d="M9.5 8.61719C9.5 6.13191 11.5147 4.11719 14 4.11719H34C36.4853 4.11719 38.5 6.13191 38.5 8.61719V10.6172C38.5 11.9234 37.6652 13.0346 36.5 13.4465V16.1172C36.5 16.3933 36.7239 16.6172 37 16.6172H37.5C39.9853 16.6172 42 18.6319 42 21.1172V39.6172C42 42.1025 39.9853 44.1172 37.5 44.1172H10.5C8.01472 44.1172 6 42.1025 6 39.6172V21.1172C6 18.6319 8.01472 16.6172 10.5 16.6172H11C11.2761 16.6172 11.5 16.3933 11.5 16.1172V13.4465C10.3348 13.0346 9.5 11.9234 9.5 10.6172V8.61719ZM14.5 13.6172V16.1172C14.5 18.0502 12.933 19.6172 11 19.6172H10.5C9.67157 19.6172 9 20.2888 9 21.1172V39.6172C9 40.4456 9.67157 41.1172 10.5 41.1172H37.5C38.3284 41.1172 39 40.4456 39 39.6172V21.1172C39 20.2888 38.3284 19.6172 37.5 19.6172H37C35.067 19.6172 33.5 18.0502 33.5 16.1172V13.6172H14.5ZM14 7.11719C13.1716 7.11719 12.5 7.78876 12.5 8.61719V10.6172H35.5V8.61719C35.5 7.78876 34.8284 7.11719 34 7.11719H14ZM16.0965 22.2137C18.2251 20.085 21.6763 20.085 23.805 22.2137L23.8618 22.2704L23.9186 22.2137C26.0472 20.085 29.4984 20.085 31.6271 22.2137C33.7503 24.3369 33.7557 27.776 31.6432 29.9059L26.1981 35.6687C24.9298 37.011 22.7938 37.011 21.5255 35.6687L16.0803 29.9059C13.9679 27.776 13.9732 24.3369 16.0965 22.2137ZM21.6837 24.335C20.7266 23.3779 19.1749 23.3779 18.2178 24.335C17.2607 25.2921 17.2607 26.8438 18.2178 27.8008L18.2328 27.8159L23.706 33.6083C23.7906 33.6978 23.933 33.6978 24.0175 33.6083L29.4907 27.8159L29.5057 27.8008C30.4628 26.8438 30.4628 25.2921 29.5057 24.335C28.5487 23.3779 26.9969 23.3779 26.0399 24.335L23.8618 26.5131L21.6837 24.335Z" fill="#006FB9"/>
</svg>
