<svg width="48" height="49" viewBox="0 0 48 49" fill="none" xmlns="http://www.w3.org/2000/svg">
<path d="M43.196 6.7628C42.678 6.2508 41.992 5.9668 41.266 5.9668H6.734C6.006 5.9668 5.32 6.2508 4.802 6.7668C4.284 7.2828 4 7.9688 4 8.7008V22.2688C4 23.8988 4.216 25.4928 4.594 27.0388C4.604 27.0708 4.598 27.1008 4.61 27.1328C4.612 27.1388 4.618 27.1428 4.62 27.1488C5.488 30.6208 7.26 33.8148 9.858 36.4108C11.578 38.1308 13.564 39.4788 15.712 40.4588L15.718 40.4648C15.746 40.4828 15.778 40.4888 15.808 40.5068C18.352 41.6488 21.126 42.2708 24 42.2708C26.892 42.2708 29.682 41.6428 32.24 40.4828C32.252 40.4748 32.266 40.4728 32.28 40.4648L32.282 40.4628C34.434 39.4828 36.422 38.1328 38.144 36.4108C40.74 33.8148 42.512 30.6228 43.38 27.1528C43.382 27.1448 43.39 27.1408 43.392 27.1328C43.406 27.0968 43.4 27.0628 43.412 27.0268C43.786 25.4848 44 23.8948 44 22.2668V8.7008C44 7.9668 43.714 7.2808 43.196 6.7628ZM7.866 27.6028C8.884 27.4068 9.93 27.4248 10.952 27.6868C12.42 28.0628 13.708 28.8728 14.678 30.0368C15.646 31.1988 16.214 32.6128 16.316 34.1228C16.388 35.1768 16.214 36.2108 15.838 37.1788C14.44 36.4088 13.138 35.4468 11.98 34.2868C10.072 32.3788 8.688 30.0928 7.866 27.6028ZM18.592 38.3748C19.158 36.9688 19.412 35.4588 19.308 33.9188C19.164 31.7748 18.358 29.7668 16.982 28.1148C15.606 26.4648 13.776 25.3108 11.692 24.7808C10.202 24.4048 8.674 24.3808 7.19 24.6828C7.078 23.8868 7 23.0828 7 22.2668V21.3008H11.666C12.494 21.3008 13.166 20.6288 13.166 19.8008C13.166 18.9728 12.494 18.3008 11.666 18.3008H7V15.1328H12.9C13.728 15.1328 14.4 14.4608 14.4 13.6328C14.4 12.8048 13.728 12.1328 12.9 12.1328H7V8.9668H41V12.1328H35.1C34.272 12.1328 33.6 12.8048 33.6 13.6328C33.6 14.4608 34.272 15.1328 35.1 15.1328H41V18.2988H36.332C35.504 18.2988 34.832 18.9708 34.832 19.7988C34.832 20.6268 35.504 21.2988 36.332 21.2988H41V22.2648C41 23.0808 40.924 23.8848 40.81 24.6788C39.328 24.3788 37.8 24.3988 36.306 24.7788C34.222 25.3108 32.394 26.4628 31.016 28.1128C29.64 29.7608 28.836 31.7688 28.69 33.9188C28.586 35.4588 28.842 36.9668 29.406 38.3728C27.684 38.9488 25.866 39.2648 23.998 39.2648C22.13 39.2648 20.314 38.9508 18.592 38.3748ZM36.022 34.2868C34.862 35.4468 33.562 36.4108 32.162 37.1788C31.786 36.2128 31.614 35.1768 31.684 34.1248C31.79 32.6108 32.356 31.1968 33.322 30.0368C34.29 28.8748 35.58 28.0628 37.048 27.6868C38.07 27.4268 39.114 27.4088 40.132 27.6048C39.312 30.0928 37.93 32.3788 36.022 34.2868Z" fill="#006FB9"/>
</svg>
