<svg width="588" height="447" viewBox="0 0 588 447" fill="none" xmlns="http://www.w3.org/2000/svg">
<g style="mix-blend-mode:multiply">
<path d="M289.912 430.011C449.887 430.011 579.572 415.306 579.572 397.168C579.572 379.029 449.887 364.324 289.912 364.324C129.937 364.324 0.251953 379.029 0.251953 397.168C0.251953 415.306 129.937 430.011 289.912 430.011Z" fill="#EBEFF5"/>
</g>
<path d="M185 362C282.755 362 362 283.651 362 187C362 90.3493 282.755 12 185 12C87.2448 12 8 90.3493 8 187C8 283.651 87.2448 362 185 362Z" fill="#D3EAFF" stroke="black" stroke-width="2"/>
<path fill-rule="evenodd" clip-rule="evenodd" d="M440.025 136.107C365.549 136.107 305.174 196.277 305.174 270.5C305.174 344.723 365.549 404.893 440.025 404.893C514.502 404.893 574.877 344.723 574.877 270.5C574.877 196.277 514.502 136.107 440.025 136.107ZM293.025 270.5C293.025 189.59 358.84 124 440.025 124C521.211 124 587.025 189.59 587.025 270.5C587.025 351.41 521.211 417 440.025 417C358.84 417 293.025 351.41 293.025 270.5Z" fill="#FFDD35"/>
<path d="M338.576 59.6328H221.01C206.531 59.6328 194.793 71.3938 194.793 85.9018V359.364C194.793 373.872 206.531 385.633 221.01 385.633H338.576C353.055 385.633 364.793 373.872 364.793 359.364V85.9018C364.793 71.3938 353.055 59.6328 338.576 59.6328Z" fill="white" stroke="black" stroke-width="2" stroke-miterlimit="10"/>
<path d="M335.132 70.8359H314.253V74.1236C314.253 79.6766 309.758 84.1803 304.216 84.1803H255.374C249.832 84.1803 245.337 79.6766 245.337 74.1236V70.8359H224.457C215.006 70.8359 207.348 78.5143 207.348 87.9791V357.282C207.348 366.752 215.011 374.425 224.457 374.425H335.143C344.595 374.425 352.253 366.747 352.253 357.282V87.9791C352.253 78.5089 344.589 70.8359 335.143 70.8359H335.132Z" fill="#88E0F8"/>
<g clip-path="url(#clip0_478_23012)">
<path d="M274.572 162.446H272.95V160.773C272.95 159.782 272.171 158.979 271.21 158.979C270.25 158.979 269.471 159.782 269.471 160.773V162.446H267.849C266.888 162.446 266.109 163.249 266.109 164.24C266.109 165.231 266.888 166.034 267.849 166.034H269.471V167.708C269.471 168.698 270.25 169.502 271.21 169.502C272.171 169.502 272.95 168.698 272.95 167.708V166.034H274.572C275.533 166.034 276.312 165.231 276.312 164.24C276.312 163.249 275.533 162.446 274.572 162.446Z" fill="#006BB5"/>
<path d="M295.878 148.817C292.039 147.391 287.617 147.869 284.093 149.96C282.785 150.736 281.65 151.774 280.57 152.871C278.438 150.801 276.155 149.014 273.109 148.354C267.386 147.116 261.549 149.494 258.23 154.464C254.983 159.326 255.031 166.201 258.373 170.998C260.01 173.348 262.231 175.317 264.205 177.353C266.326 179.54 268.447 181.728 270.568 183.916C271.734 185.119 273.717 185.121 274.886 183.916C279.323 179.339 283.76 174.762 288.197 170.186C287.177 169.929 286.209 169.397 285.412 168.575C284.627 167.765 284.115 166.784 283.862 165.749C280.15 169.577 276.438 173.406 272.727 177.234C270.106 174.531 267.485 171.828 264.864 169.124C262.76 166.953 261.458 164.25 262.048 161.098C262.801 157.081 266.274 154.211 270.231 154.296C273.881 154.373 276.069 157.101 278.442 159.548C279.608 160.751 281.592 160.754 282.761 159.548C283.886 158.388 284.963 157.063 286.216 156.047C288.221 154.421 290.922 153.9 293.366 154.596C298.73 156.124 301.056 162.998 297.699 167.618C295.871 170.135 293.291 172.268 291.144 174.482C289.43 176.25 287.716 178.018 286.003 179.786C283.471 182.397 280.94 185.008 278.409 187.619C275.626 190.489 279.943 194.944 282.727 192.073C287.328 187.328 291.928 182.582 296.529 177.837C299.632 174.636 303.196 171.635 304.672 167.225C307.182 159.728 302.987 151.455 295.878 148.817Z" fill="#24A7DD"/>
<path d="M291.155 165.842C290.3 166.725 288.912 166.725 288.057 165.842C287.201 164.959 287.201 163.528 288.057 162.646C288.912 161.763 290.3 161.763 291.155 162.646C292.011 163.528 292.011 164.959 291.155 165.842ZM293.802 159.916C291.485 157.525 287.727 157.525 285.41 159.916C283.093 162.306 283.093 166.182 285.41 168.572C287.727 170.962 291.485 170.962 293.802 168.572C296.12 166.182 296.12 162.306 293.802 159.916Z" fill="#006BB5"/>
</g>
<path d="M263.117 78.0325C264.953 78.0325 266.441 76.5413 266.441 74.7018C266.441 72.8623 264.953 71.3711 263.117 71.3711C261.281 71.3711 259.793 72.8623 259.793 74.7018C259.793 76.5413 261.281 78.0325 263.117 78.0325Z" fill="black"/>
<path d="M297.238 71.3672H272.836C271.427 71.3672 270.285 72.5115 270.285 73.9231V75.4781C270.285 76.8897 271.427 78.034 272.836 78.034H297.238C298.647 78.034 299.789 76.8897 299.789 75.4781V73.9231C299.789 72.5115 298.647 71.3672 297.238 71.3672Z" fill="black"/>
<path d="M304.087 364.324H255.497C254.355 364.324 253.43 365.252 253.43 366.396V367.655C253.43 368.799 254.355 369.727 255.497 369.727H304.087C305.229 369.727 306.155 368.799 306.155 367.655V366.396C306.155 365.252 305.229 364.324 304.087 364.324Z" fill="black"/>
<path d="M314.002 286.98H245.585C241.282 286.98 237.793 290.476 237.793 294.788V299.539C237.793 303.851 241.282 307.347 245.585 307.347H314.002C318.305 307.347 321.794 303.851 321.794 299.539V294.788C321.794 290.476 318.305 286.98 314.002 286.98Z" fill="#006FB9"/>
<path d="M333.503 255.734H226.082C225.512 255.734 225.051 256.197 225.051 256.767V257.402C225.051 257.973 225.512 258.436 226.082 258.436H333.503C334.072 258.436 334.534 257.973 334.534 257.402V256.767C334.534 256.197 334.072 255.734 333.503 255.734Z" fill="black"/>
<path d="M319.611 266.164H239.965C239.395 266.164 238.934 266.627 238.934 267.197V267.832C238.934 268.403 239.395 268.865 239.965 268.865H319.611C320.18 268.865 320.642 268.403 320.642 267.832V267.197C320.642 266.627 320.18 266.164 319.611 266.164Z" fill="black"/>
<path d="M114.746 266.633C114.746 251.91 126.385 239.973 140.739 239.973C155.093 239.973 166.732 251.91 166.732 266.633H181.697C181.697 243.433 163.366 224.633 140.747 224.633C118.127 224.633 99.7969 243.441 99.7969 266.633H114.762H114.746Z" fill="white" stroke="black" stroke-width="2" stroke-linecap="round" stroke-linejoin="round"/>
<path d="M206.699 258.418H73.8245C71.3268 258.418 69.0269 259.796 67.7989 262.03L44.6645 304.03C44.0765 305.099 43.7695 306.307 43.7695 307.53V382.988C43.7695 386.915 46.8708 390.1 50.6953 390.1H229.828C233.653 390.1 236.754 386.915 236.754 382.988V307.53C236.754 306.301 236.447 305.099 235.859 304.03L212.73 262.03C211.502 259.796 209.197 258.418 206.704 258.418H206.699Z" fill="white" stroke="black" stroke-width="2" stroke-linecap="round" stroke-linejoin="round"/>
<path d="M171.201 319.534H147.114V294.802C147.114 293.065 145.745 291.66 144.054 291.66H133.882C132.191 291.66 130.822 293.065 130.822 294.802V319.534H106.735C105.044 319.534 103.676 320.939 103.676 322.676V333.121C103.676 334.858 105.044 336.263 106.735 336.263H130.822V360.995C130.822 362.732 132.191 364.137 133.882 364.137H144.054C145.745 364.137 147.114 362.732 147.114 360.995V336.263H171.201C172.892 336.263 174.26 334.858 174.26 333.121V322.676C174.26 320.939 172.892 319.534 171.201 319.534Z" fill="#FF8575" stroke="black" stroke-width="2" stroke-linecap="round" stroke-linejoin="round"/>
<rect x="100.793" y="255.633" width="16" height="3" fill="black"/>
<rect x="164.793" y="255.633" width="16" height="3" fill="black"/>
<path d="M348.234 209.639V372.631C348.234 382.59 356.526 390.664 366.755 390.664H446.714C456.942 390.664 465.234 382.59 465.234 372.631V209.639C465.234 199.68 456.942 191.606 446.714 191.606H366.755C356.526 191.606 348.234 199.68 348.234 209.639Z" fill="#F0EFEF" stroke="black" stroke-width="2" stroke-linecap="round" stroke-linejoin="round"/>
<path d="M397.642 360.118C397.642 352.501 391.283 346.326 383.438 346.326C375.594 346.326 369.234 352.501 369.234 360.118C369.234 367.735 375.594 373.91 383.438 373.91C391.283 373.91 397.642 367.735 397.642 360.118Z" fill="black" stroke="black" stroke-width="2" stroke-linecap="round" stroke-linejoin="round"/>
<path d="M397.642 361.333C397.642 353.716 391.283 347.541 383.438 347.541C375.594 347.541 369.234 353.716 369.234 361.333C369.234 368.95 375.594 375.125 383.438 375.125C391.283 375.125 397.642 368.95 397.642 361.333Z" fill="white" stroke="black" stroke-width="2" stroke-linecap="round" stroke-linejoin="round"/>
<path d="M373.765 370.316L394.259 352.29" stroke="black" stroke-width="2" stroke-linecap="round" stroke-linejoin="round"/>
<path d="M443.714 360.118C443.714 352.501 437.354 346.326 429.51 346.326C421.665 346.326 415.306 352.501 415.306 360.118C415.306 367.735 421.665 373.91 429.51 373.91C437.354 373.91 443.714 367.735 443.714 360.118Z" fill="black" stroke="black" stroke-width="2" stroke-linecap="round" stroke-linejoin="round"/>
<path d="M443.714 361.333C443.714 353.716 437.354 347.541 429.51 347.541C421.665 347.541 415.306 353.716 415.306 361.333C415.306 368.95 421.665 375.125 429.51 375.125C437.354 375.125 443.714 368.95 443.714 361.333Z" fill="white" stroke="black" stroke-width="2" stroke-linecap="round" stroke-linejoin="round"/>
<path d="M419.765 370.316L440.259 352.29" stroke="black" stroke-width="2" stroke-linecap="round" stroke-linejoin="round"/>
<path d="M397.642 220.294C397.642 212.677 391.283 206.502 383.438 206.502C375.594 206.502 369.234 212.677 369.234 220.294C369.234 227.911 375.594 234.086 383.438 234.086C391.283 234.086 397.642 227.911 397.642 220.294Z" fill="black" stroke="black" stroke-width="2" stroke-linecap="round" stroke-linejoin="round"/>
<path d="M397.642 221.509C397.642 213.892 391.283 207.717 383.438 207.717C375.594 207.717 369.234 213.892 369.234 221.509C369.234 229.126 375.594 235.301 383.438 235.301C391.283 235.301 397.642 229.126 397.642 221.509Z" fill="white" stroke="black" stroke-width="2" stroke-linecap="round" stroke-linejoin="round"/>
<path d="M373.765 230.492L394.259 212.466" stroke="black" stroke-width="2" stroke-linecap="round" stroke-linejoin="round"/>
<path d="M443.714 220.294C443.714 212.677 437.354 206.502 429.51 206.502C421.665 206.502 415.306 212.677 415.306 220.294C415.306 227.911 421.665 234.086 429.51 234.086C437.354 234.086 443.714 227.911 443.714 220.294Z" fill="black" stroke="black" stroke-width="2" stroke-linecap="round" stroke-linejoin="round"/>
<path d="M443.714 221.509C443.714 213.892 437.354 207.717 429.51 207.717C421.665 207.717 415.306 213.892 415.306 221.509C415.306 229.126 421.665 235.301 429.51 235.301C437.354 235.301 443.714 229.126 443.714 221.509Z" fill="white" stroke="black" stroke-width="2" stroke-linecap="round" stroke-linejoin="round"/>
<path d="M419.765 230.492L440.259 212.466" stroke="black" stroke-width="2" stroke-linecap="round" stroke-linejoin="round"/>
<path d="M397.642 266.899C397.642 259.282 391.283 253.107 383.438 253.107C375.594 253.107 369.234 259.282 369.234 266.899C369.234 274.516 375.594 280.691 383.438 280.691C391.283 280.691 397.642 274.516 397.642 266.899Z" fill="black" stroke="black" stroke-width="2" stroke-linecap="round" stroke-linejoin="round"/>
<path d="M397.642 268.114C397.642 260.497 391.283 254.322 383.438 254.322C375.594 254.322 369.234 260.497 369.234 268.114C369.234 275.731 375.594 281.906 383.438 281.906C391.283 281.906 397.642 275.731 397.642 268.114Z" fill="white" stroke="black" stroke-width="2" stroke-linecap="round" stroke-linejoin="round"/>
<path d="M373.765 277.098L394.259 259.071" stroke="black" stroke-width="2" stroke-linecap="round" stroke-linejoin="round"/>
<path d="M443.714 266.899C443.714 259.282 437.354 253.107 429.51 253.107C421.665 253.107 415.306 259.282 415.306 266.899C415.306 274.516 421.665 280.691 429.51 280.691C437.354 280.691 443.714 274.516 443.714 266.899Z" fill="black" stroke="black" stroke-width="2" stroke-linecap="round" stroke-linejoin="round"/>
<path d="M443.714 268.114C443.714 260.497 437.354 254.322 429.51 254.322C421.665 254.322 415.306 260.497 415.306 268.114C415.306 275.731 421.665 281.906 429.51 281.906C437.354 281.906 443.714 275.731 443.714 268.114Z" fill="white" stroke="black" stroke-width="2" stroke-linecap="round" stroke-linejoin="round"/>
<path d="M419.765 277.098L440.259 259.071" stroke="black" stroke-width="2" stroke-linecap="round" stroke-linejoin="round"/>
<path d="M397.642 313.509C397.642 305.892 391.283 299.717 383.438 299.717C375.594 299.717 369.234 305.892 369.234 313.509C369.234 321.126 375.594 327.301 383.438 327.301C391.283 327.301 397.642 321.126 397.642 313.509Z" fill="black" stroke="black" stroke-width="2" stroke-linecap="round" stroke-linejoin="round"/>
<path d="M397.642 314.724C397.642 307.106 391.283 300.931 383.438 300.931C375.594 300.931 369.234 307.106 369.234 314.724C369.234 322.341 375.594 328.516 383.438 328.516C391.283 328.516 397.642 322.341 397.642 314.724Z" fill="white" stroke="black" stroke-width="2" stroke-linecap="round" stroke-linejoin="round"/>
<path d="M373.765 323.707L394.259 305.68" stroke="black" stroke-width="2" stroke-linecap="round" stroke-linejoin="round"/>
<path d="M443.714 313.509C443.714 305.892 437.354 299.717 429.51 299.717C421.665 299.717 415.306 305.892 415.306 313.509C415.306 321.126 421.665 327.301 429.51 327.301C437.354 327.301 443.714 321.126 443.714 313.509Z" fill="black" stroke="black" stroke-width="2" stroke-linecap="round" stroke-linejoin="round"/>
<path d="M443.714 314.724C443.714 307.106 437.354 300.931 429.51 300.931C421.665 300.931 415.306 307.106 415.306 314.724C415.306 322.341 421.665 328.516 429.51 328.516C437.354 328.516 443.714 322.341 443.714 314.724Z" fill="white" stroke="black" stroke-width="2" stroke-linecap="round" stroke-linejoin="round"/>
<path d="M419.765 323.707L440.259 305.68" stroke="black" stroke-width="2" stroke-linecap="round" stroke-linejoin="round"/>
<path d="M258.978 424.638L242.593 424.638C235.377 424.638 229.524 417.848 229.524 409.477C229.524 401.106 235.377 394.316 242.593 394.316L258.603 394.316" fill="#006FB9"/>
<path d="M258.978 424.638L242.593 424.638C235.377 424.638 229.524 417.848 229.524 409.477C229.524 401.106 235.377 394.316 242.593 394.316L258.603 394.316" stroke="black" stroke-width="2" stroke-linecap="round" stroke-linejoin="round"/>
<path d="M258.979 424.638L274.676 424.638C281.893 424.638 287.745 417.855 287.745 409.477C287.745 401.106 281.893 394.316 274.676 394.316L258.603 394.316L258.979 424.638Z" fill="#FFDD35" stroke="black" stroke-width="2" stroke-linecap="round" stroke-linejoin="round"/>
<path d="M319.365 439.239L302.98 439.239C295.764 439.239 289.911 432.45 289.911 424.079C289.911 415.707 295.764 408.918 302.98 408.918L318.989 408.918" fill="#006FB9"/>
<path d="M319.365 439.239L302.98 439.239C295.764 439.239 289.911 432.45 289.911 424.079C289.911 415.707 295.764 408.918 302.98 408.918L318.989 408.918" stroke="black" stroke-width="2" stroke-linecap="round" stroke-linejoin="round"/>
<path d="M319.366 439.239L335.063 439.239C342.279 439.239 348.132 432.457 348.132 424.079C348.132 415.707 342.279 408.918 335.063 408.918L318.99 408.918L319.366 439.239Z" fill="#FFDD35" stroke="black" stroke-width="2" stroke-linecap="round" stroke-linejoin="round"/>
<path d="M521.954 208.949V217.065" stroke="black" stroke-width="1.82463" stroke-linecap="round" stroke-linejoin="round"/>
<path d="M521.954 223.525L521.954 231.641" stroke="black" stroke-width="1.82463" stroke-linecap="round" stroke-linejoin="round"/>
<path d="M532.845 220.294H525.054" stroke="black" stroke-width="1.82463" stroke-linecap="round" stroke-linejoin="round"/>
<path d="M518.854 220.294L511.063 220.294" stroke="black" stroke-width="1.82463" stroke-linecap="round" stroke-linejoin="round"/>
<path d="M415.307 25.0586V33.1742" stroke="black" stroke-width="1.82463" stroke-linecap="round" stroke-linejoin="round"/>
<path d="M415.307 39.6348L415.307 47.7503" stroke="black" stroke-width="1.82463" stroke-linecap="round" stroke-linejoin="round"/>
<path d="M426.198 36.4035H418.407" stroke="black" stroke-width="1.82463" stroke-linecap="round" stroke-linejoin="round"/>
<path d="M412.207 36.4035L404.416 36.4035" stroke="black" stroke-width="1.82463" stroke-linecap="round" stroke-linejoin="round"/>
<path d="M556.948 87.0586V95.1742" stroke="black" stroke-width="1.82463" stroke-linecap="round" stroke-linejoin="round"/>
<path d="M556.948 101.635L556.948 109.75" stroke="black" stroke-width="1.82463" stroke-linecap="round" stroke-linejoin="round"/>
<path d="M567.839 98.4035H560.048" stroke="black" stroke-width="1.82463" stroke-linecap="round" stroke-linejoin="round"/>
<path d="M553.848 98.4035L546.057 98.4035" stroke="black" stroke-width="1.82463" stroke-linecap="round" stroke-linejoin="round"/>
<path d="M31.8444 17.7695V25.8851" stroke="black" stroke-width="1.82463" stroke-linecap="round" stroke-linejoin="round"/>
<path d="M31.8444 32.3457L31.8444 40.4613" stroke="black" stroke-width="1.82463" stroke-linecap="round" stroke-linejoin="round"/>
<path d="M42.7355 29.1144H34.9446" stroke="black" stroke-width="1.82463" stroke-linecap="round" stroke-linejoin="round"/>
<path d="M28.7442 29.1144L20.9534 29.1144" stroke="black" stroke-width="1.82463" stroke-linecap="round" stroke-linejoin="round"/>
<path d="M110.745 91.1133V99.2288" stroke="black" stroke-width="1.82463" stroke-linecap="round" stroke-linejoin="round"/>
<path d="M110.745 105.689L110.745 113.805" stroke="black" stroke-width="1.82463" stroke-linecap="round" stroke-linejoin="round"/>
<path d="M121.636 102.458H113.845" stroke="black" stroke-width="1.82463" stroke-linecap="round" stroke-linejoin="round"/>
<path d="M107.645 102.458L99.8538 102.458" stroke="black" stroke-width="1.82463" stroke-linecap="round" stroke-linejoin="round"/>
<defs>
<clipPath id="clip0_478_23012">
<rect width="51" height="45" fill="white" transform="translate(255.154 148)"/>
</clipPath>
</defs>
</svg>
