<svg width="97" height="97" viewBox="0 0 97 97" fill="none" xmlns="http://www.w3.org/2000/svg">
<path d="M44.1104 31.3757C44.1104 21.5483 52.0746 13.584 61.9021 13.584C71.7295 13.584 79.6938 21.5503 79.6938 31.3757C79.6938 41.2011 71.7295 49.1674 61.9021 49.1674C52.0746 49.1674 44.1104 41.2031 44.1104 31.3757Z" fill="#FFDD35"/>
<path d="M19.8382 60.0195H11.3322V82.641H19.8322L19.8242 82.3272C19.8242 82.2932 19.8222 82.2612 19.8242 82.2292L19.8702 63.352L19.8382 60.0195Z" fill="#9CD7FF"/>
<path d="M22.8307 79.6811L24.406 78.7856C25.6954 78.0659 27.1128 77.6961 28.5381 77.6961C29.2278 77.6961 29.9175 77.782 30.5971 77.9559L49.2665 82.6897C52.7009 83.3075 56.4211 82.8137 59.6436 81.2504L84.64 64.1584C83.2287 62.9089 81.1456 62.6171 79.4005 63.5566L67.36 69.6258L67.7739 71.391C67.8778 71.8368 67.7739 72.3046 67.488 72.6644C67.2021 73.0242 66.7723 73.2321 66.3125 73.2321H48.6967C47.8691 73.2321 47.1974 72.5605 47.1974 71.7328C47.1974 70.9052 47.8691 70.2335 48.6967 70.2335H64.4214L64.2155 69.3559C64.2075 69.338 64.1995 69.318 64.1935 69.302C63.254 66.6792 60.7571 64.916 57.9844 64.916L47.0835 64.892C44.9265 64.892 42.7495 64.3883 40.7944 63.4347L39.6769 62.893C34.2115 60.2342 27.8204 60.7579 22.8667 64.2223L22.8307 79.6811Z" fill="#F7D3BF"/>
<path d="M61.9005 13.5845C52.073 13.5845 44.1087 21.5508 44.1087 31.3763C44.1087 41.2017 52.073 49.168 61.9005 49.168C71.7279 49.168 79.6922 41.2017 79.6922 31.3763C79.6922 21.5508 71.7279 13.5845 61.9005 13.5845ZM41.1101 31.3763C41.1101 19.8936 50.4178 10.5859 61.9005 10.5859C73.3831 10.5859 82.6908 19.8936 82.6908 31.3763C82.6908 42.8589 73.3831 52.1666 61.9005 52.1666C50.4178 52.1666 41.1101 42.8609 41.1101 31.3763Z" fill="black"/>
<path d="M61.8964 17.3809C62.7241 17.3809 63.3957 18.0526 63.3957 18.8802V21.459H66.1045C66.9321 21.459 67.6038 22.1307 67.6038 22.9583C67.6038 23.7859 66.9321 24.4576 66.1045 24.4576H60.3911C59.8634 24.4556 59.3516 24.6375 58.9438 24.9733C58.536 25.3072 58.2581 25.775 58.1582 26.2927C58.0582 26.8105 58.1422 27.3482 58.3961 27.81C58.65 28.2718 59.0578 28.6316 59.5475 28.8256L59.5535 28.8276L65.3428 31.1425C66.4783 31.5963 67.4219 32.4299 68.0096 33.5034C68.5993 34.5769 68.7952 35.8203 68.5633 37.0237C68.3334 38.2252 67.6878 39.3107 66.7482 40.0883C65.8026 40.868 64.6192 41.2938 63.3937 41.2938H63.3897V43.4328C63.3897 44.2604 62.7181 44.9321 61.8904 44.9321C61.0628 44.9321 60.3911 44.2604 60.3911 43.4328V41.2938H57.6824C56.8548 41.2938 56.1831 40.6221 56.1831 39.7945C56.1831 38.9668 56.8548 38.2952 57.6824 38.2952H61.8565C61.8685 38.2952 61.8805 38.2952 61.8924 38.2952C61.9044 38.2952 61.9164 38.2952 61.9284 38.2952H63.3957C63.9235 38.2952 64.4333 38.1112 64.8391 37.7774C65.2449 37.4415 65.5208 36.9758 65.6207 36.458C65.7207 35.9422 65.6367 35.4065 65.3828 34.9447C65.1309 34.4829 64.7251 34.1251 64.2374 33.9292L58.448 31.6143C57.3106 31.1625 56.359 30.3269 55.7693 29.2534C55.1796 28.1779 54.9837 26.9304 55.2155 25.725C55.4494 24.5196 56.0931 23.4341 57.0427 22.6564C57.9883 21.8788 59.1737 21.455 60.3971 21.459V18.8802C60.3971 18.0526 61.0688 17.3809 61.8964 17.3809Z" fill="black"/>
<path d="M52.2149 85.9389C51.0134 85.9389 49.814 85.831 48.6285 85.6151L29.8592 80.8593C28.5159 80.5214 27.1065 80.7074 25.8791 81.397L22.8445 83.1202L22.8705 84.1038C22.8805 84.5076 22.7266 84.8974 22.4447 85.1873C22.1608 85.4771 21.775 85.6411 21.3712 85.6411H9.83255C9.00494 85.6411 8.33325 84.9694 8.33325 84.1418V58.5217C8.33325 57.6941 9.00494 57.0224 9.83255 57.0224H21.3232C22.1448 57.0224 22.8145 57.6841 22.8225 58.5077L22.8445 60.7027C28.4059 57.5921 35.1448 57.3542 40.9861 60.1949L42.1056 60.7366C43.6588 61.4923 45.38 61.8921 47.0872 61.8921L57.9902 61.9161C61.4666 61.9161 64.6451 63.8192 66.3303 66.7898L78.0169 60.9006C81.5712 58.9894 86.0211 60.2089 88.1202 63.7073C88.528 64.3889 88.3341 65.2685 87.6784 65.7163L61.2467 83.7879C61.1887 83.8279 61.1267 83.8639 61.0647 83.8959C58.322 85.2452 55.2714 85.9389 52.2149 85.9389ZM28.5379 77.6948C29.2275 77.6948 29.9172 77.7807 30.5969 77.9546L49.2662 82.6884C52.6986 83.3061 56.4209 82.8124 59.6434 81.2491L84.6398 64.157C83.2284 62.9076 81.1454 62.6158 79.4002 63.5553L67.3598 69.6245L67.7736 71.3897C67.8776 71.8355 67.7736 72.3033 67.4878 72.6631C67.2019 73.0229 66.7721 73.2308 66.3123 73.2308H48.6965C47.8689 73.2308 47.1972 72.5591 47.1972 71.7315C47.1972 70.9039 47.8689 70.2322 48.6965 70.2322H64.4212L64.2153 69.3546C64.2073 69.3366 64.1993 69.3166 64.1933 69.3007C63.2537 66.6779 60.7569 64.9147 57.9842 64.9147L47.0812 64.8907C44.9242 64.8907 42.7493 64.3869 40.7922 63.4334L39.6747 62.8916C34.2092 60.2329 27.8182 60.7566 22.8665 64.221L22.8285 79.6798L24.4038 78.7842C25.6932 78.0646 27.1105 77.6948 28.5379 77.6948ZM11.3319 82.6424H19.8319L19.8239 82.3286C19.8239 82.2946 19.8219 82.2626 19.8239 82.2306L19.8699 63.3534L19.8379 60.021H11.3319V82.6424Z" fill="black"/>
</svg>
