<svg width="96" height="97" viewBox="0 0 96 97" fill="none" xmlns="http://www.w3.org/2000/svg">
<path d="M33.139 65.1725V30.8086H17.3889C15.1553 30.9918 13.0816 32.0405 11.6104 33.7311C10.1392 35.4217 9.3868 37.6202 9.51382 39.8577V62.1656C9.47417 62.9114 9.72743 63.6432 10.2196 64.2049C10.7118 64.7666 11.4039 65.1138 12.1484 65.1725H16.673" fill="#9CD7FF"/>
<path d="M24.7694 30.8086V41.7525C24.7694 42.857 23.8739 43.7525 22.7694 43.7525H9.51382V39.8577C9.3868 37.6202 10.1392 35.4217 11.6104 33.7311C13.0816 32.0405 15.1553 30.9918 17.3889 30.8086H24.7694Z" fill="white"/>
<path d="M34.19 50.9909H72.6903V60.3823C72.6903 62.5914 70.8994 64.3823 68.6903 64.3823H34.19V50.9909Z" fill="white"/>
<path d="M23.1165 71.616C26.675 71.616 29.5597 68.7313 29.5597 65.1728C29.5597 61.6143 26.675 58.7296 23.1165 58.7296C19.558 58.7296 16.6732 61.6143 16.6732 65.1728C16.6732 68.7313 19.558 71.616 23.1165 71.616Z" fill="white"/>
<path d="M56.7639 71.616C60.3224 71.616 63.2071 68.7313 63.2071 65.1728C63.2071 61.6143 60.3224 58.7296 56.7639 58.7296C53.2054 58.7296 50.3207 61.6143 50.3207 65.1728C50.3207 68.7313 53.2054 71.616 56.7639 71.616Z" fill="white"/>
<path d="M73.9477 50.854H33.1406V26.5416C33.1406 25.4023 33.5932 24.3098 34.3987 23.5042C35.2043 22.6987 36.2969 22.2461 37.4361 22.2461H69.6522C70.7915 22.2461 71.884 22.6987 72.6896 23.5042C73.4951 24.3098 73.9477 25.4023 73.9477 26.5416V50.854Z" fill="#FFDD35"/>
<path fill-rule="evenodd" clip-rule="evenodd" d="M31.6389 26.5416V29.3083H17.3889C17.348 29.3083 17.3071 29.31 17.2663 29.3134C14.6427 29.5285 12.207 30.7604 10.4789 32.7461C8.76044 34.7208 7.87697 37.2854 8.01382 39.8983V62.1297C7.96554 63.2509 8.35111 64.3482 9.09139 65.1931C9.84135 66.0491 10.896 66.5782 12.0305 66.6676C12.0697 66.6707 12.109 66.6722 12.1484 66.6722H15.3147C16.0158 70.3422 19.2423 73.1159 23.1166 73.1159C26.9911 73.1159 30.2177 70.3419 30.9186 66.6716H33.096C33.1103 66.672 33.1246 66.6722 33.139 66.6722C33.1533 66.6722 33.1677 66.672 33.1819 66.6716H48.9618C49.6627 70.3419 52.8893 73.1159 56.7638 73.1159C60.6383 73.1159 63.8649 70.3419 64.5658 66.6716H69.6505C71.1876 66.6716 72.6617 66.061 73.7485 64.9741C74.8354 63.8872 75.446 62.4131 75.446 60.8761V50.8609L75.446 50.854V26.5416C75.446 25.0045 74.8354 23.5304 73.7485 22.4436C72.6617 21.3567 71.1876 20.7461 69.6505 20.7461H37.4344C35.8973 20.7461 34.4232 21.3567 33.3364 22.4436C32.2495 23.5304 31.6389 25.0045 31.6389 26.5416ZM37.4344 23.7461C36.693 23.7461 35.9819 24.0406 35.4577 24.5649C34.9334 25.0891 34.6389 25.8002 34.6389 26.5416V30.7943L34.639 30.8083V49.354H72.446V26.5416C72.446 25.8002 72.1515 25.0891 71.6272 24.5649C71.103 24.0406 70.3919 23.7461 69.6505 23.7461H37.4344ZM26.0483 32.3083H31.6389V50.854L31.639 50.8681V63.6716H30.9182C30.2164 60.0024 26.9903 57.2295 23.1166 57.2295C19.2426 57.2295 16.0164 60.0027 15.3149 63.6722H12.2183C11.8821 63.6337 11.5715 63.4715 11.3478 63.2161C11.1134 62.9486 10.9928 62.6002 11.0117 62.245C11.0131 62.2185 11.0138 62.192 11.0138 62.1654V55.2183H16.5588C17.3872 55.2183 18.0588 54.5467 18.0588 53.7183C18.0588 52.8898 17.3872 52.2183 16.5588 52.2183H11.0138V45.1945H22.0412C22.5668 45.2043 23.089 45.1088 23.5771 44.9134C24.0713 44.7155 24.5203 44.4194 24.8968 44.0429C25.2732 43.6664 25.5694 43.2175 25.7672 42.7232C25.9626 42.2351 26.0582 41.7129 26.0483 41.1874V32.3083ZM34.639 63.6716V52.354H72.446V60.8761C72.446 61.6175 72.1515 62.3285 71.6272 62.8528C71.1029 63.377 70.3919 63.6716 69.6505 63.6716H64.5654C63.8636 60.0024 60.6375 57.2295 56.7638 57.2295C52.89 57.2295 49.664 60.0024 48.9622 63.6716H34.639ZM22.057 42.1945H11.0138V39.8575C11.0138 39.8291 11.013 39.8008 11.0114 39.7725C10.9066 37.9256 11.5276 36.1109 12.7419 34.7155C13.9435 33.3348 15.6318 32.4728 17.4532 32.3083H23.0483V41.2031L23.0488 41.2388C23.0518 41.3652 23.0291 41.4909 22.9821 41.6082C22.9351 41.7256 22.8648 41.8322 22.7754 41.9216C22.6861 42.011 22.5795 42.0813 22.4621 42.1283C22.3447 42.1752 22.2191 42.1979 22.0927 42.1949L22.057 42.1945ZM23.1166 60.2295C20.3865 60.2295 18.1733 62.4426 18.1733 65.1727C18.1733 67.9028 20.3865 70.1159 23.1166 70.1159C25.8394 70.1159 28.0481 67.9145 28.0597 65.1944L28.0596 65.1716L28.0597 65.1497C28.0473 62.4302 25.839 60.2295 23.1166 60.2295ZM56.7638 70.1159C54.045 70.1159 51.8389 67.921 51.8207 65.2065L51.8211 65.1716L51.8207 65.1372C51.8398 62.4235 54.0456 60.2295 56.7638 60.2295C59.4938 60.2295 61.707 62.4426 61.707 65.1727C61.707 67.9028 59.4938 70.1159 56.7638 70.1159Z" fill="black"/>
<path d="M78.1301 36.0999C77.3017 36.0999 76.6301 36.7714 76.6301 37.5999C76.6301 38.4283 77.3017 39.0999 78.1301 39.0999H83.7099C84.5383 39.0999 85.2099 38.4283 85.2099 37.5999C85.2099 36.7714 84.5383 36.0999 83.7099 36.0999H78.1301Z" fill="black"/>
<path d="M78.1299 42.7944C77.3015 42.7944 76.6299 43.466 76.6299 44.2944C76.6299 45.1229 77.3015 45.7944 78.1299 45.7944H86.4995C87.3279 45.7944 87.9995 45.1229 87.9995 44.2944C87.9995 43.466 87.3279 42.7944 86.4995 42.7944H78.1299Z" fill="black"/>
<path d="M76.6299 50.9907C76.6299 50.1623 77.3015 49.4907 78.1299 49.4907H83.7096C84.5381 49.4907 85.2096 50.1623 85.2096 50.9907C85.2096 51.8191 84.5381 52.4907 83.7096 52.4907H78.1299C77.3015 52.4907 76.6299 51.8191 76.6299 50.9907Z" fill="black"/>
</svg>
