<svg width="269" height="95" viewBox="0 0 269 95" fill="none" xmlns="http://www.w3.org/2000/svg">
<g clip-path="url(#clip0_478_23005)">
<path d="M123.987 20.8626C123.987 10.934 131.562 4.60742 139.98 4.60742C148.664 4.60742 153.139 9.87908 154.379 14.9318L148.62 16.7334C147.866 13.7456 145.43 10.4503 139.98 10.4503C135.284 10.4503 130.322 13.7897 130.322 20.8626C130.322 27.497 135.019 31.1435 140.069 31.1435C145.43 31.1435 148.043 27.6731 148.885 24.7726L154.601 26.4862C153.404 31.2749 148.885 37.0743 140.069 37.0743C131.297 37.0743 123.987 30.7913 123.987 20.8626Z" fill="#006BB5"/>
<path d="M173.83 25.608C173.83 21.5212 171.172 19.4563 168.292 19.4563C165.412 19.4563 162.754 21.5212 162.754 25.608C162.754 29.65 165.412 31.7581 168.292 31.7581C171.172 31.7581 173.83 29.6931 173.83 25.608ZM179.723 25.608C179.723 32.2417 174.805 37.0742 168.292 37.0742C161.779 37.0742 156.861 32.2417 156.861 25.608C156.861 18.9295 161.779 14.1408 168.292 14.1408C174.805 14.1408 179.723 18.9295 179.723 25.608Z" fill="#006BB5"/>
<path d="M195.629 19.5444C192.616 19.5444 190.18 21.7855 190.18 25.6079C190.18 29.4299 192.616 31.7141 195.629 31.7141C198.642 31.7141 201.034 29.474 201.034 25.6079C201.034 21.7855 198.642 19.5444 195.629 19.5444ZM184.376 44.7629V14.7998H190.091V17.436C191.066 15.7664 193.503 14.3162 196.781 14.3162C203.161 14.3162 206.838 19.149 206.838 25.5634C206.838 32.1095 202.718 36.9423 196.559 36.9423C193.547 36.9423 191.331 35.7561 190.268 34.3065V44.7629H184.376Z" fill="#006BB5"/>
<path d="M222.744 19.5444C219.732 19.5444 217.295 21.7855 217.295 25.6079C217.295 29.4299 219.732 31.7141 222.744 31.7141C225.757 31.7141 228.15 29.474 228.15 25.6079C228.15 21.7855 225.757 19.5444 222.744 19.5444ZM211.491 44.7629V14.7998H217.206V17.436C218.181 15.7664 220.618 14.3162 223.897 14.3162C230.277 14.3162 233.954 19.149 233.954 25.5634C233.954 32.1095 229.833 36.9423 223.675 36.9423C220.663 36.9423 218.447 35.7561 217.384 34.3065V44.7629H211.491Z" fill="#006BB5"/>
<path d="M252.652 23.1477C252.563 20.9948 251.145 18.8857 247.778 18.8857C244.721 18.8857 243.037 21.1706 242.905 23.1477H252.652ZM258.145 30.2205C257.038 33.9544 253.582 37.0745 248.221 37.0745C242.24 37.0745 236.968 32.8129 236.968 25.5201C236.968 18.6224 242.107 14.1408 247.69 14.1408C254.423 14.1408 258.455 18.4031 258.455 25.344C258.455 26.1789 258.366 27.0576 258.366 27.1448H242.772C242.905 30.0006 245.342 32.0656 248.265 32.0656C251.013 32.0656 252.519 30.7035 253.227 28.7713L258.145 30.2205Z" fill="#006BB5"/>
<path d="M263.108 4.60745H269.001V36.4149H263.108V4.60745Z" fill="#006BB5"/>
<path d="M141.487 64.7957C141.176 63.082 139.759 60.4024 135.772 60.4024C132.803 60.4024 130.854 62.2912 130.854 64.3562C130.854 66.0698 131.961 67.4315 134.265 67.8707L138.652 68.7056C144.366 69.8036 147.424 73.4943 147.424 77.8876C147.424 82.6763 143.392 87.5091 136.081 87.5091C127.752 87.5091 124.075 82.1936 123.588 77.7562L129.259 76.2618C129.524 79.3379 131.696 82.1054 136.126 82.1054C139.405 82.1054 141.221 80.48 141.221 78.283C141.221 76.4821 139.848 75.076 137.411 74.593L133.024 73.7143C128.018 72.7035 124.784 69.4965 124.784 64.7957C124.784 59.2603 129.79 55.0422 135.727 55.0422C143.348 55.0422 146.272 59.6116 146.98 63.1261L141.487 64.7957Z" fill="#006BB5"/>
<path d="M164.26 78.1076V77.1407L159.342 77.8877C157.835 78.1076 156.639 78.9426 156.639 80.6121C156.639 81.8856 157.57 83.1156 159.475 83.1156C161.956 83.1156 164.26 81.9293 164.26 78.1076ZM157.259 74.4169L162.62 73.6264C163.861 73.4503 164.26 72.8356 164.26 72.0886C164.26 70.5511 163.063 69.277 160.582 69.277C158.013 69.277 156.595 70.9027 156.418 72.7915L151.19 71.6932C151.545 68.3103 154.69 64.5755 160.538 64.5755C167.449 64.5755 170.019 68.4424 170.019 72.7915V83.4237C170.019 84.5658 170.152 86.1033 170.285 86.8504H164.88C164.747 86.2788 164.658 85.0926 164.658 84.2577C163.551 85.9713 161.468 87.465 158.234 87.465C153.583 87.465 150.747 84.3459 150.747 80.9634C150.747 77.0969 153.626 74.9444 157.259 74.4169Z" fill="#006BB5"/>
<path d="M175.957 55.0422H181.849V86.8503H175.957V55.0422Z" fill="#006BB5"/>
<path d="M202.141 84.5219C200.945 86.5427 198.42 87.4218 196.115 87.4218C190.843 87.4218 187.831 83.5991 187.831 78.8983V65.2351H193.723V77.7124C193.723 80.1286 194.964 82.0615 197.71 82.0615C200.325 82.0615 201.831 80.3038 201.831 77.8003V65.2351H207.724V82.9403C207.724 84.6098 207.856 86.1035 207.945 86.8502H202.318C202.229 86.4107 202.141 85.4006 202.141 84.5219Z" fill="#006BB5"/>
<path d="M223.63 82.1496C226.643 82.1496 228.991 79.8647 228.991 75.9547C228.991 72.0889 226.643 69.9357 223.63 69.9357C220.617 69.9357 218.225 72.1327 218.225 75.9985C218.225 79.8647 220.529 82.1496 223.63 82.1496ZM234.706 82.9404C234.706 84.39 234.795 85.9713 234.884 86.8503H229.256C229.168 86.4108 229.035 85.3566 229.035 84.3459C228.06 86.0595 225.845 87.3778 222.921 87.3778C216.718 87.3778 212.288 82.545 212.288 75.9985C212.288 69.6723 216.586 64.7078 222.744 64.7078C226.51 64.7078 228.282 66.2453 228.902 67.3874V55.0422H234.706V82.9404Z" fill="#006BB5"/>
<path d="M41.1654 30.4939H37.6032V26.9615C37.6032 24.8696 35.8931 23.1738 33.7836 23.1738C31.674 23.1738 29.9639 24.8696 29.9639 26.9615V30.4939H26.4017C24.2922 30.4939 22.582 32.1897 22.582 34.2816C22.582 36.3735 24.2922 38.069 26.4017 38.069H29.9639V41.6017C29.9639 43.6936 31.674 45.3894 33.7836 45.3894C35.8931 45.3894 37.6032 43.6936 37.6032 41.6017V38.069H41.1654C43.275 38.069 44.9851 36.3735 44.9851 34.2816C44.9851 32.1897 43.275 30.4939 41.1654 30.4939Z" fill="#006BB5"/>
<path d="M87.9423 1.72373C79.5119 -1.28494 69.8021 -0.276881 62.064 4.13727C59.1899 5.77684 56.6982 7.96707 54.3265 10.2833C49.6458 5.9129 44.6326 2.1407 37.9423 0.748347C25.376 -1.86694 12.5591 3.1538 5.27033 13.6459C-1.86021 23.91 -1.75492 38.4253 5.58416 48.5523C9.17864 53.5117 14.056 57.6689 18.3905 61.9672C23.0478 66.5855 27.705 71.2037 32.3622 75.822C34.9232 78.3615 39.2791 78.3669 41.8455 75.822C51.5886 66.1601 61.332 56.4985 71.0755 46.8366C68.8358 46.2944 66.71 45.1708 64.9605 43.4363C63.2368 41.7266 62.1112 39.6546 61.5552 37.4694C53.405 45.5517 45.2542 53.634 37.104 61.7163C31.3487 56.0095 25.5938 50.3027 19.8388 44.5959C15.2172 40.0126 12.3574 34.3062 13.6548 27.6519C15.3082 19.1719 22.935 13.1131 31.6225 13.2909C39.6375 13.455 44.4438 19.2123 49.6546 24.3792C52.2152 26.9187 56.5712 26.9241 59.1379 24.3792C61.6082 21.9296 63.9724 19.1338 66.7249 16.9884C71.1281 13.5563 77.0594 12.455 82.4268 13.9251C94.2047 17.1507 99.312 31.6626 91.9416 41.4151C87.9257 46.7295 82.2617 51.2316 77.5464 55.9074C73.7831 59.6392 70.0198 63.371 66.2566 67.1028C60.6979 72.6149 55.1393 78.1271 49.5809 83.6392C43.47 89.6987 52.9506 99.1049 59.0639 93.0428C69.1663 83.0252 79.2688 73.0073 89.3709 62.9894C96.1862 56.2314 104.012 49.8951 107.253 40.5852C112.764 24.7598 103.553 7.29447 87.9423 1.72373Z" fill="#24A7DD"/>
<path d="M77.5777 37.6726C75.6988 39.5358 72.6522 39.5358 70.7733 37.6726C68.894 35.8094 68.894 32.7883 70.7733 30.9251C72.6522 29.0616 75.6988 29.0616 77.5777 30.9251C79.4567 32.7883 79.4567 35.8094 77.5777 37.6726ZM83.3898 25.1617C78.3008 20.1154 70.0501 20.1154 64.9612 25.1617C59.8723 30.208 59.8723 38.3897 64.9612 43.436C70.0501 48.4824 78.3008 48.4824 83.3898 43.436C88.4787 38.3897 88.4787 30.208 83.3898 25.1617Z" fill="#006BB5"/>
</g>
<defs>
<clipPath id="clip0_478_23005">
<rect width="269" height="95" fill="white"/>
</clipPath>
</defs>
</svg>
