<svg width="96" height="97" viewBox="0 0 96 97" fill="none" xmlns="http://www.w3.org/2000/svg">
<path d="M24.8999 62.5193V35.5693C31.6374 34.6709 33.5624 33.7726 37.4124 31.0776C40.4924 28.9216 45.7541 27.1848 47.9999 26.5859C50.2457 26.8854 55.5074 28.2029 58.5874 31.0776C61.6674 33.9523 68.2124 35.2698 71.0999 35.5693V62.5193C68.2124 65.2143 57.6249 71.5026 47.9999 71.5026C40.2999 71.5026 29.3916 65.5137 24.8999 62.5193Z" fill="#9CD7FF"/>
<path d="M46.0752 42.8842C46.0752 41.8211 46.937 40.9592 48.0002 40.9592C49.0633 40.9592 49.9252 41.8211 49.9252 42.8842V48.146H55.8283C56.8206 48.146 57.625 48.9504 57.625 49.9427C57.625 50.9349 56.8206 51.7393 55.8283 51.7393H49.9252V57.0009C49.9252 58.064 49.0633 58.9259 48.0002 58.9259C46.937 58.9259 46.0752 58.064 46.0752 57.0009V51.7393H40.1717C39.1794 51.7393 38.375 50.9349 38.375 49.9427C38.375 48.9504 39.1794 48.146 40.1717 48.146H46.0752V42.8842Z" fill="black"/>
<path fill-rule="evenodd" clip-rule="evenodd" d="M47.8771 25.091C47.9589 25.0843 48.0411 25.0843 48.1229 25.091C49.2152 25.1808 50.9733 25.4929 52.8534 26.1333C54.7278 26.7717 56.8274 27.7715 58.5115 29.2948C61.8443 32.3094 66.6714 34.1246 73.6833 33.2185C77.8264 32.6832 82.7111 34.2611 85.5854 37.682C87.0481 39.4228 87.9804 41.6359 87.9997 44.2333C88.0189 46.8164 87.1355 49.6663 85.1695 52.7149C82.8206 56.3572 80.8295 58.5853 78.9262 60.0904C77.0301 61.5899 75.2901 62.3119 73.6253 63.0026L73.5835 63.02C73.0813 63.2284 72.5783 63.4372 72.0654 63.6675C71.8671 63.8343 71.625 63.9507 71.3587 63.9969C70.0213 64.6459 68.5922 65.4975 66.9192 66.9027C63.7337 69.5784 59.8936 71.1305 56.4452 71.9974C53.0376 72.8541 49.9153 73.0659 48 72.9875C46.0847 73.0659 42.9624 72.8541 39.5548 71.9974C36.1064 71.1305 32.2663 69.5784 29.0808 66.9027C27.4078 65.4975 25.9787 64.6459 24.6413 63.9969C24.375 63.9507 24.1329 63.8343 23.9346 63.6675C23.4217 63.4372 22.9187 63.2284 22.4165 63.02L22.3747 63.0027C20.7099 62.3119 18.9699 61.5899 17.0738 60.0904C15.1705 58.5853 13.1794 56.3572 10.8305 52.7149C8.86448 49.6663 7.98114 46.8164 8.00031 44.2333C8.01958 41.6359 8.95191 39.4228 10.4146 37.682C13.2889 34.2611 18.1736 32.6832 22.3167 33.2185C29.3286 34.1246 34.1557 32.3094 37.4885 29.2948C39.1726 27.7715 41.2722 26.7717 43.1466 26.1333C45.0267 25.4929 46.7848 25.1808 47.8771 25.091ZM72.6003 60.1799C74.2025 59.5141 75.5639 58.9246 77.0654 57.7373C78.6273 56.5021 80.4102 54.5596 82.6483 51.089C84.3788 48.4057 85.0136 46.1208 84.9998 44.2556C84.9861 42.4049 84.3342 40.8563 83.2885 39.6118C81.1461 37.0619 77.3177 35.7739 74.0678 36.1938C73.5703 36.2581 73.0812 36.31 72.6003 36.35V60.1799ZM69.6003 36.445V61.521C68.2252 62.2226 66.7097 63.1609 64.9897 64.6055C62.2608 66.8976 58.884 68.291 55.7138 69.088C52.5434 69.885 49.6794 70.0605 48.0678 69.9876C48.0226 69.9856 47.9774 69.9856 47.9322 69.9876C46.3206 70.0605 43.4566 69.885 40.2862 69.088C37.116 68.291 33.7392 66.8976 31.0103 64.6055C29.2903 63.1609 27.7748 62.2226 26.3997 61.521V36.445C31.9563 36.3192 36.2615 34.4499 39.5009 31.5197C40.774 30.3681 42.4589 29.5368 44.1138 28.9731C45.6857 28.4377 47.1366 28.1754 48 28.0919C48.8634 28.1754 50.3143 28.4377 51.8862 28.9731C53.5411 29.5368 55.226 30.3681 56.4991 31.5197C59.7385 34.4499 64.0437 36.3192 69.6003 36.445ZM21.9323 36.1938C22.4297 36.2581 22.9188 36.31 23.3997 36.35V60.1799C21.7975 59.5141 20.4361 58.9246 18.9346 57.7373C17.3727 56.5021 15.5898 54.5596 13.3517 51.089C11.6212 48.4057 10.9864 46.1208 11.0002 44.2556C11.014 42.4049 11.6658 40.8563 12.7115 39.6118C14.8539 37.0619 18.6823 35.7739 21.9323 36.1938Z" fill="black"/>
</svg>
