<svg width="96" height="97" viewBox="0 0 96 97" fill="none" xmlns="http://www.w3.org/2000/svg">
<path d="M21.3478 26.8242H74.913V77.0416C74.913 82.5885 70.4164 87.0851 64.8695 87.0851H31.3913C25.8444 87.0851 21.3478 82.5885 21.3478 77.0416V26.8242Z" fill="white"/>
<path d="M18 16.7816C18 13.0837 20.9977 10.0859 24.6957 10.0859H71.5652C75.2631 10.0859 78.2609 13.0837 78.2609 16.7816V25.1512C78.2609 26.0756 77.5114 26.8251 76.587 26.8251H19.6739C18.7494 26.8251 18 26.0756 18 25.1512V16.7816Z" fill="#047FD0"/>
<path d="M21.3478 40.2168H74.913V70.3472H21.3478V40.2168Z" fill="#9CD7FF"/>
<path d="M46.4567 48.586C46.4567 47.6615 47.2061 46.9121 48.1306 46.9121C49.055 46.9121 49.8045 47.6615 49.8045 48.586V53.6077H54.8262C55.7507 53.6077 56.5001 54.3571 56.5001 55.2816C56.5001 56.2061 55.7507 56.9555 54.8262 56.9555H49.8045V61.9773C49.8045 62.9018 49.055 63.6512 48.1306 63.6512C47.2061 63.6512 46.4567 62.9018 46.4567 61.9773V56.9555H41.4349C40.5104 56.9555 39.761 56.2061 39.761 55.2816C39.761 54.3571 40.5104 53.6077 41.4349 53.6077H46.4567V48.586Z" fill="#1B1A16"/>
<path fill-rule="evenodd" clip-rule="evenodd" d="M24.6957 8.58594C20.1693 8.58594 16.5 12.2553 16.5 16.7816V25.1512C16.5 26.9041 17.921 28.3251 19.6739 28.3251H19.8477V77.0423C19.8477 83.4176 25.0159 88.5858 31.3911 88.5858H64.8694C71.2447 88.5858 76.4129 83.4176 76.4129 77.0423V28.3251H76.587C78.3399 28.3251 79.7609 26.9041 79.7609 25.1512V16.7816C79.7609 12.2553 76.0915 8.58594 71.5652 8.58594H24.6957ZM22.8477 68.8467V41.7163H73.4129V68.8467H22.8477ZM22.8477 38.7163H73.4129V28.3251H22.8477V38.7163ZM22.8477 71.8467H73.4129V77.0423C73.4129 81.7608 69.5878 85.5858 64.8694 85.5858H31.3911C26.6727 85.5858 22.8477 81.7608 22.8477 77.0423V71.8467ZM76.587 25.3251C76.683 25.3251 76.7609 25.2472 76.7609 25.1512V16.7816C76.7609 13.9121 74.4347 11.5859 71.5652 11.5859H24.6957C21.8262 11.5859 19.5 13.9121 19.5 16.7816V25.1512C19.5 25.2472 19.5779 25.3251 19.6739 25.3251H76.587Z" fill="#1B1A16"/>
</svg>
