<svg width="48" height="49" viewBox="0 0 48 49" fill="none" xmlns="http://www.w3.org/2000/svg">
<path d="M21.7053 31.3773C21.0878 30.8251 20.1395 30.8779 19.5872 31.4954C19.035 32.1128 19.0878 33.0611 19.7053 33.6134C20.8864 34.6698 22.4154 35.2539 24 35.2539C25.5846 35.2539 27.1137 34.6698 28.2948 33.6134C28.9122 33.0611 28.9651 32.1128 28.4128 31.4954C27.8605 30.8779 26.9122 30.8251 26.2948 31.3773C25.6637 31.9418 24.8467 32.2539 24 32.2539C23.1533 32.2539 22.3364 31.9418 21.7053 31.3773Z" fill="#006FB9"/>
<path d="M27.7066 21.1111C28.535 21.1111 29.2066 21.7827 29.2066 22.6111C29.2066 22.8686 29.3089 23.1156 29.491 23.2977C29.6731 23.4798 29.9201 23.5821 30.1777 23.5821C30.4352 23.5821 30.6822 23.4798 30.8643 23.2977C31.0464 23.1156 31.1487 22.8686 31.1487 22.6111C31.1487 21.7827 31.8203 21.1111 32.6487 21.1111C33.4771 21.1111 34.1487 21.7827 34.1487 22.6111C34.1487 23.6643 33.7303 24.6743 32.9856 25.419C32.2409 26.1638 31.2309 26.5821 30.1777 26.5821C29.1245 26.5821 28.1144 26.1638 27.3697 25.419C26.625 24.6743 26.2066 23.6643 26.2066 22.6111C26.2066 21.7827 26.8782 21.1111 27.7066 21.1111Z" fill="#006FB9"/>
<path d="M16.8513 22.6111C16.8513 21.7827 16.1797 21.1111 15.3513 21.1111C14.5229 21.1111 13.8513 21.7827 13.8513 22.6111C13.8513 23.6643 14.2697 24.6743 15.0144 25.419C15.7591 26.1638 16.7692 26.5821 17.8224 26.5821C18.8756 26.5821 19.8856 26.1638 20.6303 25.419C21.3751 24.6743 21.7934 23.6643 21.7934 22.6111C21.7934 21.7827 21.1219 21.1111 20.2934 21.1111C19.465 21.1111 18.7934 21.7827 18.7934 22.6111C18.7934 22.8686 18.6911 23.1156 18.509 23.2977C18.3269 23.4798 18.0799 23.5821 17.8224 23.5821C17.5648 23.5821 17.3178 23.4798 17.1357 23.2977C16.9536 23.1156 16.8513 22.8686 16.8513 22.6111Z" fill="#006FB9"/>
<path fill-rule="evenodd" clip-rule="evenodd" d="M8.46979 19.4237C9.7457 11.7045 17.0477 6.82855 23.9991 6.82812L24.0102 6.82813C30.9588 6.83289 38.2549 11.7079 39.5302 19.4238C40.5691 19.671 41.529 20.2018 42.2965 20.9693C43.3872 22.06 44 23.5394 44 25.0819C44 26.6244 43.3872 28.1038 42.2965 29.1945C41.4715 30.0196 40.4241 30.5711 39.2953 30.7909C38.1942 33.7404 36.2606 36.3161 33.7194 38.1989C30.9073 40.2824 27.5 41.4072 24 41.4072C20.5 41.4072 17.0927 40.2824 14.2806 38.1989C11.7394 36.3161 9.80579 33.7404 8.70473 30.7909C7.57587 30.5711 6.52852 30.0196 5.7035 29.1945C4.61277 28.1038 4 26.6244 4 25.0819C4 23.5394 4.61277 22.06 5.7035 20.9693C6.47098 20.2018 7.43087 19.671 8.46979 19.4237ZM25.1481 10.149C24.8024 9.93895 24.4057 9.82795 24.0012 9.82812H23.9988C17.9347 9.82872 11.831 14.3179 11.3114 20.8841C11.2497 21.6642 10.5987 22.2658 9.81612 22.2658C9.06924 22.2658 8.35295 22.5625 7.82482 23.0906C7.2967 23.6187 7 24.335 7 25.0819C7 25.8288 7.2967 26.5451 7.82482 27.0732C8.35295 27.6013 9.06924 27.898 9.81612 27.898C10.4763 27.898 11.0589 28.3297 11.2511 28.9613C12.083 31.6943 13.7711 34.0877 16.0665 35.7884C18.362 37.4891 21.1432 38.4072 24 38.4072C26.8568 38.4072 29.638 37.4891 31.9335 35.7884C34.2289 34.0877 35.917 31.6943 36.7489 28.9613C36.9411 28.3297 37.5237 27.898 38.1839 27.898C38.9308 27.898 39.6471 27.6013 40.1752 27.0732C40.7033 26.5451 41 25.8288 41 25.0819C41 24.335 40.7033 23.6187 40.1752 23.0906C39.6471 22.5625 38.9308 22.2658 38.1839 22.2658C37.4013 22.2658 36.7503 21.6642 36.6886 20.8841C36.3175 16.1938 33.0971 12.5633 29.0771 10.8715C29.1908 11.3672 29.2317 11.8792 29.1965 12.3913C29.1311 13.3437 28.8051 14.2599 28.2542 15.0395C27.7033 15.8191 26.9486 16.4323 26.0726 16.8119C25.1967 17.1916 24.2332 17.3231 23.2876 17.192C22.342 17.061 21.4506 16.6725 20.7108 16.069C19.9711 15.4656 19.4116 14.6703 19.0933 13.7702C18.8172 12.9892 19.2265 12.1322 20.0075 11.856C20.7886 11.5799 21.6456 11.9892 21.9218 12.7702C22.0566 13.1517 22.2938 13.4887 22.6073 13.7445C22.9208 14.0003 23.2986 14.1649 23.6993 14.2204C24.1001 14.276 24.5084 14.2202 24.8796 14.0593C25.2509 13.8984 25.5707 13.6386 25.8042 13.3082C26.0377 12.9777 26.1759 12.5895 26.2036 12.1858C26.2313 11.7822 26.1475 11.3787 25.9613 11.0195C25.7752 10.6603 25.4938 10.3591 25.1481 10.149Z" fill="#006FB9"/>
</svg>
