<svg width="667" height="273" viewBox="0 0 667 273" fill="none" xmlns="http://www.w3.org/2000/svg">
<g style="mix-blend-mode:multiply">
<path d="M312.564 272.683C472.539 272.683 602.225 257.978 602.225 239.839C602.225 221.701 472.539 206.996 312.564 206.996C152.59 206.996 22.9043 221.701 22.9043 239.839C22.9043 257.978 152.59 272.683 312.564 272.683Z" fill="#EBEFF5"/>
</g>
<path d="M549.846 22.3421L549.845 22.3421C541.303 22.3274 532.875 24.304 525.232 28.1144C517.588 31.9249 510.941 37.464 505.818 44.2913L505.09 45.2624L504.36 44.2923C497.421 35.0719 487.755 28.264 476.73 24.8322C465.704 21.4004 453.877 21.5185 442.922 25.1698C431.967 28.821 422.439 35.8205 415.687 45.1776C408.934 54.5345 405.299 65.7752 405.295 77.3091L549.846 22.3421ZM549.846 22.3421C564.438 22.3586 578.427 28.1554 588.745 38.4605C599.062 48.7652 604.865 62.7364 604.882 77.3091C604.882 105.403 588.578 134.457 556.093 163.658C541.366 176.844 525.348 188.517 508.281 198.501C507.305 199.046 506.206 199.331 505.089 199.331C503.968 199.331 502.866 199.044 501.889 198.497C499.934 197.404 475.739 183.68 452.044 161.896M549.846 22.3421L452.044 161.896M452.044 161.896C428.312 140.077 405.295 110.367 405.295 77.3094L452.044 161.896Z" fill="#FF8575" stroke="black" stroke-width="1.82463"/>
<path fill-rule="evenodd" clip-rule="evenodd" d="M207.625 195.615C254.682 195.615 292.828 157.469 292.828 110.412C292.828 63.3562 254.682 25.2096 207.625 25.2096C160.569 25.2096 122.423 63.3562 122.423 110.412C122.423 157.469 160.569 195.615 207.625 195.615ZM307.807 110.412C307.807 165.741 262.954 210.594 207.625 210.594C152.297 210.594 107.444 165.741 107.444 110.412C107.444 55.0839 152.297 10.2312 207.625 10.2312C262.954 10.2312 307.807 55.0839 307.807 110.412Z" fill="#006FB9"/>
<path d="M342.862 123.257C342.862 110.306 353.099 99.8042 365.725 99.8042C378.35 99.8042 388.587 110.306 388.587 123.257H401.75C401.75 102.848 385.627 86.3086 365.732 86.3086C345.836 86.3086 329.713 102.855 329.713 123.257H342.876H342.862Z" fill="white" stroke="black" stroke-width="1.53983" stroke-linecap="round" stroke-linejoin="round"/>
<path d="M423.74 116.031H306.868C304.671 116.031 302.648 117.244 301.568 119.209L281.22 156.158C280.703 157.098 280.433 158.16 280.433 159.237V225.62C280.433 229.074 283.161 231.876 286.525 231.876H444.084C447.447 231.876 450.175 229.074 450.175 225.62V159.237C450.175 158.156 449.905 157.098 449.388 156.158L429.044 119.209C427.964 117.244 425.937 116.031 423.745 116.031H423.74Z" fill="white" stroke="black" stroke-width="1.53983" stroke-linecap="round" stroke-linejoin="round"/>
<path d="M392.518 169.797H371.332V148.039C371.332 146.512 370.128 145.275 368.641 145.275H359.693C358.206 145.275 357.002 146.512 357.002 148.039V169.797H335.816C334.329 169.797 333.125 171.033 333.125 172.561V181.75C333.125 183.278 334.329 184.514 335.816 184.514H357.002V206.272C357.002 207.799 358.206 209.036 359.693 209.036H368.641C370.128 209.036 371.332 207.799 371.332 206.272V184.514H392.518C394.005 184.514 395.209 183.278 395.209 181.75V172.561C395.209 171.033 394.005 169.797 392.518 169.797Z" fill="#FF8575" stroke="black" stroke-width="1.53983" stroke-linecap="round" stroke-linejoin="round"/>
<rect x="330.588" y="113.582" width="14.073" height="2.6392" fill="black"/>
<rect x="386.881" y="113.582" width="14.073" height="2.6392" fill="black"/>
<path d="M528.301 158.588H415.111C408.195 158.588 402.588 164.373 402.588 171.509V227.292C402.588 234.428 408.195 240.213 415.111 240.213H528.301C535.217 240.213 540.824 234.428 540.824 227.292V171.509C540.824 164.373 535.217 158.588 528.301 158.588Z" fill="#F0EFEF" stroke="black" stroke-width="1.53983" stroke-linecap="round" stroke-linejoin="round"/>
<path d="M423.801 193.057C429.091 193.057 433.379 188.62 433.379 183.148C433.379 177.675 429.091 173.238 423.801 173.238C418.511 173.238 414.223 177.675 414.223 183.148C414.223 188.62 418.511 193.057 423.801 193.057Z" fill="black" stroke="black" stroke-width="1.53983" stroke-linecap="round" stroke-linejoin="round"/>
<path d="M422.958 193.057C428.247 193.057 432.536 188.62 432.536 183.148C432.536 177.675 428.247 173.238 422.958 173.238C417.668 173.238 413.38 177.675 413.38 183.148C413.38 188.62 417.668 193.057 422.958 193.057Z" fill="white" stroke="black" stroke-width="1.53983" stroke-linecap="round" stroke-linejoin="round"/>
<path d="M416.72 176.398L429.238 190.696" stroke="black" stroke-width="1.53983" stroke-linecap="round" stroke-linejoin="round"/>
<path d="M423.801 225.201C429.091 225.201 433.379 220.765 433.379 215.292C433.379 209.819 429.091 205.383 423.801 205.383C418.511 205.383 414.223 209.819 414.223 215.292C414.223 220.765 418.511 225.201 423.801 225.201Z" fill="black" stroke="black" stroke-width="1.53983" stroke-linecap="round" stroke-linejoin="round"/>
<path d="M422.958 225.201C428.247 225.201 432.536 220.765 432.536 215.292C432.536 209.819 428.247 205.383 422.958 205.383C417.668 205.383 413.38 209.819 413.38 215.292C413.38 220.765 417.668 225.201 422.958 225.201Z" fill="white" stroke="black" stroke-width="1.53983" stroke-linecap="round" stroke-linejoin="round"/>
<path d="M416.72 208.494L429.238 222.792" stroke="black" stroke-width="1.53983" stroke-linecap="round" stroke-linejoin="round"/>
<path d="M520.903 193.057C526.193 193.057 530.481 188.62 530.481 183.148C530.481 177.675 526.193 173.238 520.903 173.238C515.613 173.238 511.325 177.675 511.325 183.148C511.325 188.62 515.613 193.057 520.903 193.057Z" fill="black" stroke="black" stroke-width="1.53983" stroke-linecap="round" stroke-linejoin="round"/>
<path d="M520.06 193.057C525.349 193.057 529.638 188.62 529.638 183.148C529.638 177.675 525.349 173.238 520.06 173.238C514.77 173.238 510.482 177.675 510.482 183.148C510.482 188.62 514.77 193.057 520.06 193.057Z" fill="white" stroke="black" stroke-width="1.53983" stroke-linecap="round" stroke-linejoin="round"/>
<path d="M513.821 176.398L526.34 190.696" stroke="black" stroke-width="1.53983" stroke-linecap="round" stroke-linejoin="round"/>
<path d="M520.903 225.201C526.193 225.201 530.481 220.765 530.481 215.292C530.481 209.819 526.193 205.383 520.903 205.383C515.613 205.383 511.325 209.819 511.325 215.292C511.325 220.765 515.613 225.201 520.903 225.201Z" fill="black" stroke="black" stroke-width="1.53983" stroke-linecap="round" stroke-linejoin="round"/>
<path d="M520.06 225.201C525.349 225.201 529.638 220.765 529.638 215.292C529.638 209.819 525.349 205.383 520.06 205.383C514.77 205.383 510.482 209.819 510.482 215.292C510.482 220.765 514.77 225.201 520.06 225.201Z" fill="white" stroke="black" stroke-width="1.53983" stroke-linecap="round" stroke-linejoin="round"/>
<path d="M513.821 208.494L526.34 222.792" stroke="black" stroke-width="1.53983" stroke-linecap="round" stroke-linejoin="round"/>
<path d="M488.537 193.057C493.826 193.057 498.114 188.62 498.114 183.148C498.114 177.675 493.826 173.238 488.537 173.238C483.247 173.238 478.959 177.675 478.959 183.148C478.959 188.62 483.247 193.057 488.537 193.057Z" fill="black" stroke="black" stroke-width="1.53983" stroke-linecap="round" stroke-linejoin="round"/>
<path d="M487.693 193.057C492.983 193.057 497.271 188.62 497.271 183.148C497.271 177.675 492.983 173.238 487.693 173.238C482.403 173.238 478.115 177.675 478.115 183.148C478.115 188.62 482.403 193.057 487.693 193.057Z" fill="white" stroke="black" stroke-width="1.53983" stroke-linecap="round" stroke-linejoin="round"/>
<path d="M481.455 176.398L493.973 190.696" stroke="black" stroke-width="1.53983" stroke-linecap="round" stroke-linejoin="round"/>
<path d="M488.537 225.201C493.826 225.201 498.114 220.765 498.114 215.292C498.114 209.819 493.826 205.383 488.537 205.383C483.247 205.383 478.959 209.819 478.959 215.292C478.959 220.765 483.247 225.201 488.537 225.201Z" fill="black" stroke="black" stroke-width="1.53983" stroke-linecap="round" stroke-linejoin="round"/>
<path d="M487.693 225.201C492.983 225.201 497.271 220.765 497.271 215.292C497.271 209.819 492.983 205.383 487.693 205.383C482.403 205.383 478.115 209.819 478.115 215.292C478.115 220.765 482.403 225.201 487.693 225.201Z" fill="white" stroke="black" stroke-width="1.53983" stroke-linecap="round" stroke-linejoin="round"/>
<path d="M481.455 208.494L493.973 222.792" stroke="black" stroke-width="1.53983" stroke-linecap="round" stroke-linejoin="round"/>
<path d="M456.17 193.057C461.46 193.057 465.748 188.62 465.748 183.148C465.748 177.675 461.46 173.238 456.17 173.238C450.88 173.238 446.592 177.675 446.592 183.148C446.592 188.62 450.88 193.057 456.17 193.057Z" fill="black" stroke="black" stroke-width="1.53983" stroke-linecap="round" stroke-linejoin="round"/>
<path d="M455.326 193.057C460.616 193.057 464.904 188.62 464.904 183.148C464.904 177.675 460.616 173.238 455.326 173.238C450.037 173.238 445.748 177.675 445.748 183.148C445.748 188.62 450.037 193.057 455.326 193.057Z" fill="white" stroke="black" stroke-width="1.53983" stroke-linecap="round" stroke-linejoin="round"/>
<path d="M449.088 176.398L461.607 190.696" stroke="black" stroke-width="1.53983" stroke-linecap="round" stroke-linejoin="round"/>
<path d="M456.17 225.201C461.46 225.201 465.748 220.765 465.748 215.292C465.748 209.819 461.46 205.383 456.17 205.383C450.88 205.383 446.592 209.819 446.592 215.292C446.592 220.765 450.88 225.201 456.17 225.201Z" fill="black" stroke="black" stroke-width="1.53983" stroke-linecap="round" stroke-linejoin="round"/>
<path d="M455.326 225.201C460.616 225.201 464.904 220.765 464.904 215.292C464.904 209.819 460.616 205.383 455.326 205.383C450.037 205.383 445.748 209.819 445.748 215.292C445.748 220.765 450.037 225.201 455.326 225.201Z" fill="white" stroke="black" stroke-width="1.53983" stroke-linecap="round" stroke-linejoin="round"/>
<path d="M449.088 208.494L461.607 222.792" stroke="black" stroke-width="1.53983" stroke-linecap="round" stroke-linejoin="round"/>
<path d="M523.711 162.346H411.261C404.39 162.346 398.82 168.067 398.82 175.125V230.295C398.82 237.353 404.39 243.074 411.261 243.074H523.711C530.582 243.074 536.152 237.353 536.152 230.295V175.125C536.152 168.067 530.582 162.346 523.711 162.346Z" fill="#F0EFEF" stroke="black" stroke-width="1.53983" stroke-linecap="round" stroke-linejoin="round"/>
<path d="M419.896 196.439C425.151 196.439 429.411 192.051 429.411 186.638C429.411 181.226 425.151 176.838 419.896 176.838C414.641 176.838 410.38 181.226 410.38 186.638C410.38 192.051 414.641 196.439 419.896 196.439Z" fill="black" stroke="black" stroke-width="1.53983" stroke-linecap="round" stroke-linejoin="round"/>
<path d="M419.058 196.439C424.313 196.439 428.574 192.051 428.574 186.638C428.574 181.226 424.313 176.838 419.058 176.838C413.803 176.838 409.543 181.226 409.543 186.638C409.543 192.051 413.803 196.439 419.058 196.439Z" fill="white" stroke="black" stroke-width="1.53983" stroke-linecap="round" stroke-linejoin="round"/>
<path d="M412.86 179.965L425.297 194.106" stroke="black" stroke-width="1.53983" stroke-linecap="round" stroke-linejoin="round"/>
<path d="M419.896 228.228C425.151 228.228 429.411 223.84 429.411 218.427C429.411 213.015 425.151 208.627 419.896 208.627C414.641 208.627 410.38 213.015 410.38 218.427C410.38 223.84 414.641 228.228 419.896 228.228Z" fill="black" stroke="black" stroke-width="1.53983" stroke-linecap="round" stroke-linejoin="round"/>
<path d="M419.058 228.228C424.313 228.228 428.574 223.84 428.574 218.427C428.574 213.015 424.313 208.627 419.058 208.627C413.803 208.627 409.543 213.015 409.543 218.427C409.543 223.84 413.803 228.228 419.058 228.228Z" fill="white" stroke="black" stroke-width="1.53983" stroke-linecap="round" stroke-linejoin="round"/>
<path d="M412.86 211.703L425.297 225.844" stroke="black" stroke-width="1.53983" stroke-linecap="round" stroke-linejoin="round"/>
<path d="M516.361 196.439C521.617 196.439 525.877 192.051 525.877 186.638C525.877 181.226 521.617 176.838 516.361 176.838C511.106 176.838 506.846 181.226 506.846 186.638C506.846 192.051 511.106 196.439 516.361 196.439Z" fill="black" stroke="black" stroke-width="1.53983" stroke-linecap="round" stroke-linejoin="round"/>
<path d="M515.524 196.439C520.779 196.439 525.039 192.051 525.039 186.638C525.039 181.226 520.779 176.838 515.524 176.838C510.269 176.838 506.008 181.226 506.008 186.638C506.008 192.051 510.269 196.439 515.524 196.439Z" fill="white" stroke="black" stroke-width="1.53983" stroke-linecap="round" stroke-linejoin="round"/>
<path d="M509.326 179.965L521.762 194.106" stroke="black" stroke-width="1.53983" stroke-linecap="round" stroke-linejoin="round"/>
<path d="M516.361 228.228C521.617 228.228 525.877 223.84 525.877 218.427C525.877 213.015 521.617 208.627 516.361 208.627C511.106 208.627 506.846 213.015 506.846 218.427C506.846 223.84 511.106 228.228 516.361 228.228Z" fill="black" stroke="black" stroke-width="1.53983" stroke-linecap="round" stroke-linejoin="round"/>
<path d="M515.524 228.228C520.779 228.228 525.039 223.84 525.039 218.427C525.039 213.015 520.779 208.627 515.524 208.627C510.269 208.627 506.008 213.015 506.008 218.427C506.008 223.84 510.269 228.228 515.524 228.228Z" fill="white" stroke="black" stroke-width="1.53983" stroke-linecap="round" stroke-linejoin="round"/>
<path d="M509.326 211.703L521.762 225.844" stroke="black" stroke-width="1.53983" stroke-linecap="round" stroke-linejoin="round"/>
<path d="M484.208 196.439C489.463 196.439 493.723 192.051 493.723 186.638C493.723 181.226 489.463 176.838 484.208 176.838C478.953 176.838 474.693 181.226 474.693 186.638C474.693 192.051 478.953 196.439 484.208 196.439Z" fill="black" stroke="black" stroke-width="1.53983" stroke-linecap="round" stroke-linejoin="round"/>
<path d="M483.37 196.439C488.625 196.439 492.886 192.051 492.886 186.638C492.886 181.226 488.625 176.838 483.37 176.838C478.115 176.838 473.855 181.226 473.855 186.638C473.855 192.051 478.115 196.439 483.37 196.439Z" fill="white" stroke="black" stroke-width="1.53983" stroke-linecap="round" stroke-linejoin="round"/>
<path d="M477.172 179.965L489.609 194.106" stroke="black" stroke-width="1.53983" stroke-linecap="round" stroke-linejoin="round"/>
<path d="M484.208 228.228C489.463 228.228 493.723 223.84 493.723 218.427C493.723 213.015 489.463 208.627 484.208 208.627C478.953 208.627 474.693 213.015 474.693 218.427C474.693 223.84 478.953 228.228 484.208 228.228Z" fill="black" stroke="black" stroke-width="1.53983" stroke-linecap="round" stroke-linejoin="round"/>
<path d="M483.37 228.228C488.625 228.228 492.886 223.84 492.886 218.427C492.886 213.015 488.625 208.627 483.37 208.627C478.115 208.627 473.855 213.015 473.855 218.427C473.855 223.84 478.115 228.228 483.37 228.228Z" fill="white" stroke="black" stroke-width="1.53983" stroke-linecap="round" stroke-linejoin="round"/>
<path d="M477.172 211.703L489.609 225.844" stroke="black" stroke-width="1.53983" stroke-linecap="round" stroke-linejoin="round"/>
<path d="M452.051 196.439C457.306 196.439 461.567 192.051 461.567 186.638C461.567 181.226 457.306 176.838 452.051 176.838C446.796 176.838 442.536 181.226 442.536 186.638C442.536 192.051 446.796 196.439 452.051 196.439Z" fill="black" stroke="black" stroke-width="1.53983" stroke-linecap="round" stroke-linejoin="round"/>
<path d="M451.214 196.439C456.469 196.439 460.729 192.051 460.729 186.638C460.729 181.226 456.469 176.838 451.214 176.838C445.959 176.838 441.698 181.226 441.698 186.638C441.698 192.051 445.959 196.439 451.214 196.439Z" fill="white" stroke="black" stroke-width="1.53983" stroke-linecap="round" stroke-linejoin="round"/>
<path d="M445.016 179.965L457.452 194.106" stroke="black" stroke-width="1.53983" stroke-linecap="round" stroke-linejoin="round"/>
<path d="M452.051 228.228C457.306 228.228 461.567 223.84 461.567 218.427C461.567 213.015 457.306 208.627 452.051 208.627C446.796 208.627 442.536 213.015 442.536 218.427C442.536 223.84 446.796 228.228 452.051 228.228Z" fill="black" stroke="black" stroke-width="1.53983" stroke-linecap="round" stroke-linejoin="round"/>
<path d="M451.214 228.228C456.469 228.228 460.729 223.84 460.729 218.427C460.729 213.015 456.469 208.627 451.214 208.627C445.959 208.627 441.698 213.015 441.698 218.427C441.698 223.84 445.959 228.228 451.214 228.228Z" fill="white" stroke="black" stroke-width="1.53983" stroke-linecap="round" stroke-linejoin="round"/>
<path d="M445.016 211.703L457.452 225.844" stroke="black" stroke-width="1.53983" stroke-linecap="round" stroke-linejoin="round"/>
<path d="M519.832 166.111H406.642C399.726 166.111 394.119 171.833 394.119 178.89V234.061C394.119 241.118 399.726 246.84 406.642 246.84H519.832C526.748 246.84 532.355 241.118 532.355 234.061V178.89C532.355 171.833 526.748 166.111 519.832 166.111Z" fill="#F0EFEF" stroke="black" stroke-width="1.53983" stroke-linecap="round" stroke-linejoin="round"/>
<path d="M415.332 200.204C420.622 200.204 424.91 195.817 424.91 190.404C424.91 184.991 420.622 180.604 415.332 180.604C410.043 180.604 405.755 184.991 405.755 190.404C405.755 195.817 410.043 200.204 415.332 200.204Z" fill="black" stroke="black" stroke-width="1.53983" stroke-linecap="round" stroke-linejoin="round"/>
<path d="M414.489 200.204C419.779 200.204 424.067 195.817 424.067 190.404C424.067 184.991 419.779 180.604 414.489 180.604C409.199 180.604 404.911 184.991 404.911 190.404C404.911 195.817 409.199 200.204 414.489 200.204Z" fill="white" stroke="black" stroke-width="1.53983" stroke-linecap="round" stroke-linejoin="round"/>
<path d="M408.251 183.73L420.769 197.871" stroke="black" stroke-width="1.53983" stroke-linecap="round" stroke-linejoin="round"/>
<path d="M415.332 231.993C420.622 231.993 424.91 227.606 424.91 222.193C424.91 216.78 420.622 212.393 415.332 212.393C410.043 212.393 405.755 216.78 405.755 222.193C405.755 227.606 410.043 231.993 415.332 231.993Z" fill="black" stroke="black" stroke-width="1.53983" stroke-linecap="round" stroke-linejoin="round"/>
<path d="M414.489 231.993C419.779 231.993 424.067 227.606 424.067 222.193C424.067 216.78 419.779 212.393 414.489 212.393C409.199 212.393 404.911 216.78 404.911 222.193C404.911 227.606 409.199 231.993 414.489 231.993Z" fill="white" stroke="black" stroke-width="1.53983" stroke-linecap="round" stroke-linejoin="round"/>
<path d="M408.251 215.469L420.769 229.609" stroke="black" stroke-width="1.53983" stroke-linecap="round" stroke-linejoin="round"/>
<path d="M512.434 200.204C517.724 200.204 522.012 195.817 522.012 190.404C522.012 184.991 517.724 180.604 512.434 180.604C507.145 180.604 502.857 184.991 502.857 190.404C502.857 195.817 507.145 200.204 512.434 200.204Z" fill="black" stroke="black" stroke-width="1.53983" stroke-linecap="round" stroke-linejoin="round"/>
<path d="M511.591 200.204C516.881 200.204 521.169 195.817 521.169 190.404C521.169 184.991 516.881 180.604 511.591 180.604C506.301 180.604 502.013 184.991 502.013 190.404C502.013 195.817 506.301 200.204 511.591 200.204Z" fill="white" stroke="black" stroke-width="1.53983" stroke-linecap="round" stroke-linejoin="round"/>
<path d="M505.353 183.73L517.871 197.871" stroke="black" stroke-width="1.53983" stroke-linecap="round" stroke-linejoin="round"/>
<path d="M512.434 231.993C517.724 231.993 522.012 227.606 522.012 222.193C522.012 216.78 517.724 212.393 512.434 212.393C507.145 212.393 502.857 216.78 502.857 222.193C502.857 227.606 507.145 231.993 512.434 231.993Z" fill="black" stroke="black" stroke-width="1.53983" stroke-linecap="round" stroke-linejoin="round"/>
<path d="M511.591 231.993C516.881 231.993 521.169 227.606 521.169 222.193C521.169 216.78 516.881 212.393 511.591 212.393C506.301 212.393 502.013 216.78 502.013 222.193C502.013 227.606 506.301 231.993 511.591 231.993Z" fill="white" stroke="black" stroke-width="1.53983" stroke-linecap="round" stroke-linejoin="round"/>
<path d="M505.353 215.469L517.871 229.609" stroke="black" stroke-width="1.53983" stroke-linecap="round" stroke-linejoin="round"/>
<path d="M480.068 200.204C485.358 200.204 489.646 195.817 489.646 190.404C489.646 184.991 485.358 180.604 480.068 180.604C474.778 180.604 470.49 184.991 470.49 190.404C470.49 195.817 474.778 200.204 480.068 200.204Z" fill="black" stroke="black" stroke-width="1.53983" stroke-linecap="round" stroke-linejoin="round"/>
<path d="M479.224 200.204C484.514 200.204 488.802 195.817 488.802 190.404C488.802 184.991 484.514 180.604 479.224 180.604C473.935 180.604 469.646 184.991 469.646 190.404C469.646 195.817 473.935 200.204 479.224 200.204Z" fill="white" stroke="black" stroke-width="1.53983" stroke-linecap="round" stroke-linejoin="round"/>
<path d="M472.986 183.73L485.505 197.871" stroke="black" stroke-width="1.53983" stroke-linecap="round" stroke-linejoin="round"/>
<path d="M480.068 231.993C485.358 231.993 489.646 227.606 489.646 222.193C489.646 216.78 485.358 212.393 480.068 212.393C474.778 212.393 470.49 216.78 470.49 222.193C470.49 227.606 474.778 231.993 480.068 231.993Z" fill="black" stroke="black" stroke-width="1.53983" stroke-linecap="round" stroke-linejoin="round"/>
<path d="M479.224 231.993C484.514 231.993 488.802 227.606 488.802 222.193C488.802 216.78 484.514 212.393 479.224 212.393C473.935 212.393 469.646 216.78 469.646 222.193C469.646 227.606 473.935 231.993 479.224 231.993Z" fill="white" stroke="black" stroke-width="1.53983" stroke-linecap="round" stroke-linejoin="round"/>
<path d="M472.986 215.469L485.505 229.609" stroke="black" stroke-width="1.53983" stroke-linecap="round" stroke-linejoin="round"/>
<path d="M447.701 200.204C452.991 200.204 457.279 195.817 457.279 190.404C457.279 184.991 452.991 180.604 447.701 180.604C442.411 180.604 438.123 184.991 438.123 190.404C438.123 195.817 442.411 200.204 447.701 200.204Z" fill="black" stroke="black" stroke-width="1.53983" stroke-linecap="round" stroke-linejoin="round"/>
<path d="M446.858 200.204C452.147 200.204 456.435 195.817 456.435 190.404C456.435 184.991 452.147 180.604 446.858 180.604C441.568 180.604 437.28 184.991 437.28 190.404C437.28 195.817 441.568 200.204 446.858 200.204Z" fill="white" stroke="black" stroke-width="1.53983" stroke-linecap="round" stroke-linejoin="round"/>
<path d="M440.619 183.73L453.138 197.871" stroke="black" stroke-width="1.53983" stroke-linecap="round" stroke-linejoin="round"/>
<path d="M447.701 231.993C452.991 231.993 457.279 227.606 457.279 222.193C457.279 216.78 452.991 212.393 447.701 212.393C442.411 212.393 438.123 216.78 438.123 222.193C438.123 227.606 442.411 231.993 447.701 231.993Z" fill="black" stroke="black" stroke-width="1.53983" stroke-linecap="round" stroke-linejoin="round"/>
<path d="M446.858 231.993C452.147 231.993 456.435 227.606 456.435 222.193C456.435 216.78 452.147 212.393 446.858 212.393C441.568 212.393 437.28 216.78 437.28 222.193C437.28 227.606 441.568 231.993 446.858 231.993Z" fill="white" stroke="black" stroke-width="1.53983" stroke-linecap="round" stroke-linejoin="round"/>
<path d="M440.619 215.469L453.138 229.609" stroke="black" stroke-width="1.53983" stroke-linecap="round" stroke-linejoin="round"/>
<path d="M135.806 248.576L125.494 253.297C120.952 255.376 115.579 252.676 113.496 247.27C111.413 241.863 113.407 235.791 117.948 233.713L128.024 229.1" fill="#006FB9"/>
<path d="M135.806 248.576L125.494 253.297C120.952 255.376 115.579 252.676 113.496 247.27C111.413 241.863 113.407 235.791 117.948 233.713L128.024 229.1" stroke="black" stroke-width="1.53983" stroke-linecap="round" stroke-linejoin="round"/>
<path d="M135.806 248.576L145.686 244.054C150.227 241.975 152.223 235.908 150.138 230.497C148.055 225.09 142.682 222.391 138.141 224.47L128.025 229.101L135.806 248.576Z" fill="#FFDD35" stroke="black" stroke-width="1.53983" stroke-linecap="round" stroke-linejoin="round"/>
<path d="M173.146 259L161.759 259C156.744 259 152.676 254.223 152.676 248.332C152.676 242.442 156.744 237.664 161.759 237.664L172.885 237.664" fill="#006FB9"/>
<path d="M173.146 259L161.759 259C156.744 259 152.676 254.223 152.676 248.332C152.676 242.442 156.744 237.664 161.759 237.664L172.885 237.664" stroke="black" stroke-width="1.53983" stroke-linecap="round" stroke-linejoin="round"/>
<path d="M173.146 259L184.056 259C189.071 259 193.138 254.228 193.138 248.332C193.138 242.442 189.071 237.664 184.056 237.664L172.885 237.664L173.146 259Z" fill="#FFDD35" stroke="black" stroke-width="1.53983" stroke-linecap="round" stroke-linejoin="round"/>
<path d="M190.171 219.518L107.377 219.518C100.459 219.518 94.8438 214.073 94.8438 207.364L94.8438 160.688C94.8438 131.827 119.005 108.399 148.768 108.399C178.531 108.399 202.691 131.827 202.691 160.688L202.691 207.364C202.691 214.073 197.076 219.518 190.158 219.518L190.171 219.518Z" fill="#F3FAFF" stroke="black" stroke-width="1.82463" stroke-linecap="round" stroke-linejoin="round"/>
<path d="M148.887 160.172C119.255 160.172 95.2339 160.147 95.2339 154.377L95.2339 201.465C96.8328 204.442 109.802 206.721 148.887 206.721C187.971 206.721 201.006 204.442 202.637 201.465L202.637 156.703L202.54 154.377C202.54 160.147 178.518 160.172 148.887 160.172Z" fill="#006FB9"/>
<path d="M95.2266 154.377C95.2294 154.377 95.2339 154.377 95.2339 154.377M95.2339 154.377C95.2339 160.147 119.255 160.172 148.887 160.172C178.518 160.172 202.54 160.147 202.54 154.377L202.637 156.703L202.637 201.465C201.006 204.442 187.971 206.721 148.887 206.721C109.802 206.721 96.8328 204.442 95.2339 201.465L95.2339 154.377Z" stroke="black" stroke-width="1.54181" stroke-linecap="round" stroke-linejoin="round"/>
<path d="M130.857 109.855L166.023 109.855C168.492 109.855 170.494 107.914 170.494 105.52L170.494 104.083C170.494 101.689 168.492 99.748 166.023 99.748L130.857 99.748C128.387 99.748 126.385 101.689 126.385 104.083L126.385 105.52C126.385 107.914 128.387 109.855 130.857 109.855Z" fill="#D3EAFF" stroke="black" stroke-width="1.82463" stroke-linecap="round" stroke-linejoin="round"/>
<path d="M252.628 82.3437C252.308 78.3465 237.242 75.1289 218.699 75.1289C200.156 75.1289 185.092 78.3465 184.772 82.3437H184.76L184.76 228.605H184.764C184.764 232.661 199.958 235.95 218.701 235.95C237.443 235.95 252.637 232.661 252.637 228.605H252.699L252.699 82.3437H252.629H252.628Z" fill="#D3EAFF" stroke="black" stroke-width="1.54181" stroke-linecap="round" stroke-linejoin="round"/>
<path d="M218.701 127.427C199.958 127.427 184.764 124.138 184.764 120.082V200.737C185.776 202.829 193.979 207.703 218.701 207.703C243.423 207.703 251.667 202.829 252.699 200.737V120.082H252.637C252.637 124.138 237.443 127.427 218.701 127.427Z" fill="#FFDD35"/>
<path d="M184.76 120.082C184.762 120.082 184.764 120.082 184.764 120.082M184.764 120.082C184.764 124.138 199.958 127.427 218.701 127.427C237.443 127.427 252.637 124.138 252.637 120.082H252.699V200.737C251.667 202.829 243.423 207.703 218.701 207.703C193.979 207.703 185.776 202.829 184.764 200.737V120.082Z" stroke="black" stroke-width="1.54181" stroke-linecap="round" stroke-linejoin="round"/>
<path d="M184.771 92.8557C184.771 92.8557 197.35 97.749 219.464 97.4519C241.892 97.1517 249.283 94.2641 252.871 92.8982V89.5972C252.871 89.5972 235.944 94.2641 219.577 93.6951C219.577 93.6951 197.427 93.1937 184.76 89.209L184.772 92.8542L184.771 92.8557Z" fill="black"/>
<path d="M256.862 76.0111C255.889 71.6441 239.211 68.168 218.779 68.168C198.346 68.168 180.65 71.8598 180.65 76.4145V86.258C180.65 90.8127 197.721 94.5045 218.78 94.5045C239.839 94.5045 256.831 90.8282 256.909 86.2875L256.864 76.0095L256.862 76.0111Z" fill="#006FB9" stroke="black" stroke-width="1.54181" stroke-linecap="round" stroke-linejoin="round"/>
<path d="M218.733 84.6487C239.776 84.6487 256.835 80.9594 256.835 76.4083C256.835 71.8573 239.776 68.168 218.733 68.168C197.69 68.168 180.631 71.8573 180.631 76.4083C180.631 80.9594 197.69 84.6487 218.733 84.6487Z" fill="#006FB9" stroke="black" stroke-width="1.54181" stroke-linecap="round" stroke-linejoin="round"/>
<path d="M291.177 161.082C290.856 157.085 275.791 153.867 257.248 153.867C238.705 153.867 223.641 157.085 223.321 161.082H223.309L223.309 241.728H223.313C223.313 245.784 238.507 249.073 257.25 249.073C275.992 249.073 291.186 245.784 291.186 241.728H291.248L291.248 161.082H291.178H291.177Z" fill="#D3EAFF" stroke="black" stroke-width="1.54181" stroke-linecap="round" stroke-linejoin="round"/>
<path d="M257.25 191.404C238.507 191.404 223.313 188.115 223.313 184.059V223.704C224.325 225.797 232.528 230.67 257.25 230.67C281.971 230.67 290.216 225.797 291.248 223.704V184.059H291.186C291.186 188.115 275.992 191.404 257.25 191.404Z" fill="#FFDD35"/>
<path d="M223.309 184.059C223.31 184.059 223.313 184.059 223.313 184.059M223.313 184.059C223.313 188.115 238.507 191.404 257.25 191.404C275.992 191.404 291.186 188.115 291.186 184.059H291.248V223.704C290.216 225.797 281.971 230.67 257.25 230.67C232.528 230.67 224.325 225.797 223.313 223.704V184.059Z" stroke="black" stroke-width="1.54181" stroke-linecap="round" stroke-linejoin="round"/>
<path d="M223.319 171.594C223.319 171.594 235.899 176.487 258.013 176.19C280.441 175.89 287.832 173.002 291.42 171.636V168.336C291.42 168.336 274.493 173.002 258.126 172.433C258.126 172.433 235.976 171.932 223.309 167.947L223.321 171.592L223.319 171.594Z" fill="black"/>
<path d="M295.411 154.749C294.438 150.382 277.76 146.906 257.328 146.906C236.895 146.906 219.199 150.598 219.199 155.153V164.996C219.199 169.551 236.27 173.243 257.329 173.243C278.388 173.243 295.38 169.566 295.458 165.026L295.413 154.748L295.411 154.749Z" fill="#006FB9" stroke="black" stroke-width="1.54181" stroke-linecap="round" stroke-linejoin="round"/>
<path d="M257.282 163.387C278.325 163.387 295.384 159.698 295.384 155.147C295.384 150.596 278.325 146.906 257.282 146.906C236.239 146.906 219.18 150.596 219.18 155.147C219.18 159.698 236.239 163.387 257.282 163.387Z" fill="#006FB9" stroke="black" stroke-width="1.54181" stroke-linecap="round" stroke-linejoin="round"/>
<path d="M39.0789 106.27L45.902 113.093" stroke="black" stroke-width="1.82463" stroke-linecap="round" stroke-linejoin="round"/>
<path d="M51.3328 118.523L58.1559 125.347" stroke="black" stroke-width="1.82463" stroke-linecap="round" stroke-linejoin="round"/>
<path d="M58.1559 106.27L51.3328 113.093" stroke="black" stroke-width="1.82463" stroke-linecap="round" stroke-linejoin="round"/>
<path d="M45.902 118.523L39.0789 125.347" stroke="black" stroke-width="1.82463" stroke-linecap="round" stroke-linejoin="round"/>
<path d="M11.9576 1.69141V9.80697" stroke="black" stroke-width="1.82463" stroke-linecap="round" stroke-linejoin="round"/>
<path d="M11.9576 16.2676L11.9576 24.3831" stroke="black" stroke-width="1.82463" stroke-linecap="round" stroke-linejoin="round"/>
<path d="M22.8487 13.0363H15.0578" stroke="black" stroke-width="1.82463" stroke-linecap="round" stroke-linejoin="round"/>
<path d="M8.85746 13.0363L1.06661 13.0363" stroke="black" stroke-width="1.82463" stroke-linecap="round" stroke-linejoin="round"/>
<path d="M363.458 24.4961V32.6117" stroke="black" stroke-width="1.82463" stroke-linecap="round" stroke-linejoin="round"/>
<path d="M363.458 39.0723L363.458 47.1878" stroke="black" stroke-width="1.82463" stroke-linecap="round" stroke-linejoin="round"/>
<path d="M374.349 35.841H366.558" stroke="black" stroke-width="1.82463" stroke-linecap="round" stroke-linejoin="round"/>
<path d="M360.358 35.841L352.567 35.841" stroke="black" stroke-width="1.82463" stroke-linecap="round" stroke-linejoin="round"/>
<path d="M612.881 175.83L620.21 182.906" stroke="black" stroke-width="1.82463" stroke-linecap="round" stroke-linejoin="round"/>
<path d="M626.044 188.537L633.373 195.613" stroke="black" stroke-width="1.82463" stroke-linecap="round" stroke-linejoin="round"/>
<path d="M633.373 175.83L626.044 182.906" stroke="black" stroke-width="1.82463" stroke-linecap="round" stroke-linejoin="round"/>
<path d="M620.21 188.537L612.881 195.613" stroke="black" stroke-width="1.82463" stroke-linecap="round" stroke-linejoin="round"/>
</svg>
