<svg width="48" height="49" viewBox="0 0 48 49" fill="none" xmlns="http://www.w3.org/2000/svg">
<path fill-rule="evenodd" clip-rule="evenodd" d="M7.96641 4.11719C8.79483 4.11719 9.46641 4.78876 9.46641 5.61719V17.0707C9.72959 16.9821 10.0027 16.9209 10.2814 16.8891C11.0727 16.7987 11.8729 16.9485 12.5778 17.3191C15.5682 18.8766 18.1147 21.125 20.0223 23.8508H27.9776C29.8853 21.1249 32.4318 18.8765 35.4224 17.319C36.1272 16.9485 36.9273 16.7987 37.7185 16.8891C37.9972 16.9209 38.2703 16.9821 38.5335 17.0707V5.61719C38.5335 4.78876 39.2051 4.11719 40.0335 4.11719C40.8619 4.11719 41.5335 4.78876 41.5335 5.61719V19.5406C42.9601 21.2976 43.7066 23.2177 43.9281 25.2481C44.2145 27.8731 43.6109 30.5687 42.7058 33.1799L40.2554 42.9814C40.1569 43.3754 39.9029 43.7126 39.5514 43.9159C39.1999 44.1193 38.781 44.1715 38.3904 44.0606C33.6974 42.728 28.871 41.9206 23.9999 41.6531C19.1289 41.9206 14.3025 42.728 9.6095 44.0606C9.21887 44.1715 8.79997 44.1193 8.4485 43.916C8.09703 43.7126 7.84303 43.3754 7.74455 42.9815L5.29408 33.1799C4.38898 30.5687 3.78539 27.8731 4.07179 25.2481C4.29331 23.2177 5.03983 21.2975 6.46641 19.5405V5.61719C6.46641 4.78876 7.13798 4.11719 7.96641 4.11719ZM9.02329 21.1611C7.79454 22.5633 7.22181 24.0363 7.0541 25.5735C6.85361 27.4111 7.22177 29.4402 7.95289 31.6759C9.65731 32.4452 11.5366 32.7574 13.4047 32.5763C14.5803 32.4624 15.7228 32.1559 16.7884 31.6746C17.0039 31.4653 17.2822 31.3202 17.5922 31.2701C18.1025 30.9859 18.5909 30.6593 19.0519 30.2926C19.0771 30.2726 19.103 30.2533 19.1294 30.235C19.312 30.108 19.4453 29.9219 19.5067 29.7081C19.5681 29.4943 19.5539 29.2659 19.4665 29.0614L19.4574 29.0402L19.4576 29.0401C19.0694 28.0917 18.6025 27.1841 18.0645 26.3256C17.9759 26.222 17.9011 26.1062 17.8431 25.9811C16.1826 23.4621 13.8987 21.389 11.1892 19.9784L11.1825 19.9749L11.1825 19.9749C11.0105 19.8843 10.8152 19.8476 10.622 19.8697C10.4289 19.8918 10.2469 19.9716 10.0998 20.0987L10.0996 20.0989C9.74591 20.4043 9.42829 20.7134 9.14391 21.026C9.10643 21.0735 9.06614 21.1186 9.02329 21.1611ZM21.7687 26.8508C21.9316 27.1935 22.0855 27.5414 22.2301 27.8941C22.5843 28.7304 22.6409 29.6631 22.3901 30.5363C22.3188 30.7845 22.2239 31.0237 22.1074 31.2509H25.8925C25.776 31.0237 25.6811 30.7845 25.6098 30.5363C25.359 29.6631 25.4156 28.7304 25.7698 27.8941C25.9144 27.5414 26.0683 27.1935 26.2312 26.8508H21.7687ZM29.9359 26.3247C29.3977 27.1835 28.9307 28.0913 28.5423 29.0401L28.5336 29.0615L28.5334 29.0614C28.446 29.2659 28.4318 29.4943 28.4932 29.7081C28.5546 29.9219 28.6879 30.108 28.8705 30.235C28.8969 30.2533 28.9228 30.2726 28.9479 30.2926C29.409 30.6593 29.8974 30.9859 30.4077 31.2701C30.7178 31.3202 30.996 31.4653 31.2115 31.6746C32.2771 32.1559 33.4196 32.4624 34.5952 32.5763C36.4633 32.7574 38.3426 32.4452 40.047 31.6759C40.7781 29.4402 41.1463 27.4111 40.9458 25.5735C40.7781 24.0363 40.2053 22.5632 38.9765 21.161C38.9337 21.1185 38.8935 21.0735 38.8561 21.0262C38.5717 20.7135 38.254 20.4043 37.9003 20.0989L37.9001 20.0987C37.753 19.9716 37.571 19.8918 37.3778 19.8697C37.1847 19.8476 36.9894 19.8843 36.8174 19.9749L36.8107 19.9784L36.8107 19.9784C34.1008 21.3892 31.8167 23.4627 30.1562 25.9821C30.0984 26.1065 30.024 26.2217 29.9359 26.3247ZM39.1141 35.1773C37.5543 35.5863 35.9267 35.7194 34.3058 35.5623C32.677 35.4045 31.0978 34.9577 29.6396 34.2509H18.3603C16.9021 34.9577 15.3229 35.4045 13.6941 35.5623C12.0732 35.7194 10.4456 35.5863 8.88579 35.1773L10.2837 40.7686C14.7455 39.6093 19.3136 38.9003 23.9196 38.6531C23.9731 38.6502 24.0268 38.6502 24.0803 38.6531C28.6863 38.9003 33.2544 39.6093 37.7163 40.7686L39.1141 35.1773Z" fill="#006FB9"/>
</svg>
