<svg width="48" height="49" viewBox="0 0 48 49" fill="none" xmlns="http://www.w3.org/2000/svg">
<path fill-rule="evenodd" clip-rule="evenodd" d="M7.69995 17.7269C7.69995 10.3361 13.2208 4.11719 20.3 4.11719C21.5934 4.11719 22.8347 4.32478 24 4.7092C25.1652 4.32478 26.4065 4.11719 27.7 4.11719C34.7791 4.11719 40.2999 10.3361 40.2999 17.7269V25.0839H41.2668C41.9917 25.0839 42.6869 25.3718 43.1995 25.8844C43.7121 26.397 44.0001 27.0923 44.0001 27.8172V38.9172C44.0001 40.2963 43.4522 41.619 42.4771 42.5942C41.5019 43.5693 40.1792 44.1172 38.8001 44.1172C37.421 44.1172 36.0983 43.5693 35.1231 42.5942C34.148 41.619 33.6001 40.2963 33.6001 38.9172V27.8172C33.6001 27.0923 33.8881 26.397 34.4007 25.8844C34.9133 25.3718 35.6085 25.0839 36.3334 25.0839H37.2999V17.7269C37.2999 11.941 33.1711 7.4267 28.215 7.13245C31.0835 9.64241 32.8912 13.4771 32.8999 17.6963C32.9928 20.1324 32.121 22.5075 30.473 24.3052C28.8179 26.1107 26.5148 27.1868 24.068 27.2979C24.0226 27.3 23.9773 27.3 23.9319 27.2979C21.4851 27.1868 19.182 26.1107 17.5269 24.3052C15.8789 22.5075 15.0071 20.1324 15.1 17.6963C15.1087 13.4771 16.9164 9.6424 19.7849 7.13245C14.8288 7.4267 10.7 11.941 10.7 17.7269V25.0839H11.6667C12.3916 25.0839 13.0868 25.3718 13.5994 25.8844C14.112 26.397 14.4 27.0923 14.4 27.8172V38.9172C14.4 40.2963 13.8521 41.619 12.877 42.5942C11.9018 43.5693 10.5791 44.1172 9.2 44.1172C7.82087 44.1172 6.49823 43.5693 5.52304 42.5942C4.54786 41.619 4 40.2963 4 38.9172V27.8172C4 27.0923 4.28798 26.397 4.80057 25.8844C5.31317 25.3718 6.00841 25.0839 6.73333 25.0839H7.69995V17.7269ZM36.6001 33.0172V38.9172C36.6001 39.5007 36.8319 40.0602 37.2445 40.4728C37.657 40.8854 38.2166 41.1172 38.8001 41.1172C39.3836 41.1172 39.9432 40.8854 40.3557 40.4728C40.7683 40.0602 41.0001 39.5007 41.0001 38.9172V33.0172H36.6001ZM41.0001 30.0172H36.6001V28.0839H41.0001V30.0172ZM11.4 28.0839V30.0172H7V28.0839H11.4ZM11.4 33.0172H7V38.9172C7 39.5007 7.23178 40.0602 7.64437 40.4728C8.05695 40.8854 8.61652 41.1172 9.2 41.1172C9.78348 41.1172 10.3431 40.8854 10.7556 40.4728C11.1682 40.0602 11.4 39.5007 11.4 38.9172V33.0172ZM24 7.93973C20.5785 9.52459 18.1 13.2441 18.1 17.7269C18.1 17.7476 18.0995 17.7684 18.0987 17.7891C18.0299 19.4434 18.6195 21.0575 19.7383 22.278C20.8418 23.4818 22.3713 24.2059 24 24.2975C25.6286 24.2059 27.1581 23.4818 28.2616 22.278C29.3804 21.0575 29.97 19.4434 29.9012 17.7891C29.9004 17.7684 29.9 17.7476 29.9 17.7269C29.9 13.2441 27.4214 9.52459 24 7.93973Z" fill="#006FB9"/>
</svg>
