<svg width="48" height="49" viewBox="0 0 48 49" fill="none" xmlns="http://www.w3.org/2000/svg">
<path fill-rule="evenodd" clip-rule="evenodd" d="M25.2526 38.8609C26.7901 39.9934 28.6518 40.6031 30.563 40.6001L31.1841 40.6201C33.3123 40.4627 35.3153 39.5558 36.8352 38.0612C38.1387 36.7684 39.013 35.1076 39.3401 33.3032C40.0745 32.9065 40.7491 32.4085 41.344 31.8238C42.3849 30.7933 43.1557 29.5232 43.5883 28.1253C44.0274 26.7283 44.1101 25.2441 43.8288 23.8071C43.5696 22.3419 42.9422 20.9663 42.0052 19.8088C41.3148 18.9634 40.4805 18.246 39.5404 17.6897C39.5641 16.6724 39.4151 15.6585 39.0996 14.6909C38.6732 13.3553 37.9307 12.1416 36.9352 11.1524C35.9371 10.1676 34.7226 9.42842 33.3883 8.99331C32.4141 8.66748 31.3895 8.51852 30.3626 8.55349C29.6799 7.36274 28.7256 6.34913 27.5772 5.59472C26.1186 4.62225 24.4017 4.10706 22.6474 4.11533C20.9031 4.11227 19.1962 4.61967 17.738 5.57472C16.5225 6.3693 15.5186 7.44637 14.8124 8.71342C13.0169 9.05655 11.3677 9.93486 10.083 11.2324C8.58622 12.7415 7.67712 14.733 7.51815 16.85C7.3423 18.9887 7.94719 21.1187 9.22141 22.8475C10.0693 24.0192 11.1845 24.9581 12.4628 25.5944C10.8122 27.8367 8.54343 30.0261 5.57419 32.2834C5.11556 32.6169 4.74452 33.0558 4.49225 33.5629C4.21279 34.0601 4.04848 34.6134 4.01134 35.1822C3.98848 35.747 4.077 36.3108 4.27185 36.8415C4.4782 37.3681 4.78427 37.85 5.17351 38.2609L9.88262 42.939C10.2857 43.3432 10.771 43.6568 11.3056 43.8586C11.7546 44.0254 12.2291 44.1133 12.7082 44.1185L12.9085 44.0385C13.4762 44.0019 14.0296 43.8452 14.5318 43.5787C15.0328 43.3074 15.4701 42.9325 15.8143 42.4792C18.0791 39.5429 20.2754 37.2795 22.5252 35.6282C23.1571 36.8993 24.0888 38.011 25.2526 38.8609ZM31.4975 30.4674C31.773 30.7926 32.1363 31.035 32.5466 31.164C32.9265 31.2835 33.2431 31.5485 33.4273 31.9009C33.6114 32.2533 33.6479 32.6641 33.5285 33.0432C33.4201 33.336 33.2228 33.5878 32.9642 33.7634C32.7056 33.939 32.3986 34.0297 32.0858 34.0228C31.9395 34.0423 31.791 34.0423 31.6447 34.0228C30.7323 33.7369 29.9197 33.2102 29.2895 32.5046C27.8378 32.8152 26.4453 33.3176 25.0871 34.0244C25.5019 34.986 26.1647 35.8287 27.016 36.4619C28.1731 37.3063 29.5944 37.7104 31.0238 37.6014C32.4371 37.4871 33.7643 36.8781 34.7711 35.8821C35.7918 34.8912 36.4122 33.5608 36.5145 32.1437C36.5399 31.873 36.6367 31.6139 36.7951 31.3926C36.9535 31.1714 37.1678 30.996 37.4162 30.8842C38.0986 30.6014 38.7183 30.187 39.2398 29.6647C39.9394 28.9837 40.4562 28.1381 40.7427 27.2057C41.0253 26.2726 41.0802 25.2855 40.9029 24.3269C40.7154 23.3676 40.2958 22.4686 39.6806 21.708C39.0689 20.9598 38.2852 20.37 37.3961 19.9887C37.0879 19.8558 36.8324 19.6249 36.6693 19.332C36.5063 19.0392 36.4448 18.7007 36.4944 18.3694C36.6344 17.4517 36.559 16.5142 36.274 15.6305C35.9715 14.7545 35.4789 13.9558 34.8313 13.2915C34.1719 12.6372 33.3692 12.1445 32.4866 11.8521C31.6009 11.5678 30.6612 11.4926 29.7413 11.6322C29.4092 11.6818 29.0699 11.6204 28.7763 11.4577C28.4827 11.295 28.2513 11.0401 28.118 10.7326C27.659 9.66732 26.9004 8.75764 25.9339 8.11367C24.9657 7.47298 23.8293 7.13217 22.6675 7.13408C21.5006 7.11986 20.3561 7.45403 19.3811 8.09368C18.4117 8.73984 17.6471 9.64831 17.1768 10.7126C17.0681 10.9589 16.8959 11.1719 16.6776 11.33C16.4593 11.4881 16.2028 11.5855 15.9344 11.6122C14.5327 11.7411 13.2208 12.3566 12.2273 13.3515C11.2362 14.3588 10.6331 15.6826 10.524 17.0899C10.3943 18.5149 10.7935 19.9377 11.6461 21.0883C12.2734 21.9409 13.1116 22.6076 14.0707 23.0288C14.7872 21.6514 15.2931 20.2386 15.6059 18.7643C14.936 18.1343 14.4392 17.3375 14.1706 16.4502C14.1087 16.2625 14.085 16.0644 14.1011 15.8676C14.1172 15.6707 14.1727 15.4791 14.2642 15.3039C14.3558 15.1288 14.4815 14.9737 14.6341 14.8478C14.7867 14.7219 14.9628 14.6278 15.1524 14.5709C15.5324 14.4519 15.9443 14.4882 16.2975 14.6718C16.6507 14.8555 16.9165 15.1716 17.0362 15.5505C17.1826 16.0346 17.4946 16.452 17.9178 16.73L17.9364 16.742C17.986 16.7678 18.0341 16.7963 18.0806 16.8273C18.4767 17.0431 18.9278 17.1419 19.3806 17.1099C19.6115 17.0884 19.8361 17.0321 20.0472 16.9442C20.1897 16.8231 20.3547 16.7287 20.5345 16.6672C20.6 16.6184 20.663 16.566 20.7233 16.5101C21.0955 16.1614 21.336 15.6955 21.4046 15.1907C21.4269 14.9958 21.4879 14.8073 21.5839 14.6362C21.6799 14.465 21.809 14.3146 21.9638 14.1937C22.1186 14.0728 22.2957 13.9838 22.4853 13.9318C22.6749 13.8799 22.873 13.8661 23.068 13.8912C23.2633 13.9134 23.4522 13.9742 23.6238 14.07C23.7953 14.1657 23.946 14.2945 24.0672 14.4489C24.1885 14.6033 24.2777 14.7802 24.3297 14.9694C24.3818 15.1585 24.3955 15.356 24.3703 15.5505C24.2725 16.3687 23.9827 17.1467 23.5307 17.8241C24.0566 18.1671 24.5674 18.5309 25.0618 18.9143C25.1833 18.983 25.2947 19.0686 25.3926 19.1689L25.412 19.1886L25.423 19.2001C26.6805 20.2161 27.8272 21.3616 28.844 22.6173C28.8699 22.6398 28.895 22.6632 28.9194 22.6875C29.0283 22.7962 29.1186 22.9199 29.1886 23.0536C29.5872 23.571 29.9643 24.1061 30.3185 24.6576C30.9894 24.2143 31.7581 23.9279 32.5667 23.8271C32.7643 23.802 32.9647 23.8163 33.1567 23.8692C33.3487 23.9222 33.5285 24.0127 33.6851 24.1355C33.8417 24.2582 33.9721 24.4108 34.0691 24.5844C34.1661 24.758 34.2276 24.9491 34.2499 25.1465C34.2751 25.341 34.2613 25.5386 34.2093 25.7277C34.1572 25.9168 34.068 26.0937 33.9468 26.2481C33.8256 26.4025 33.6746 26.5313 33.5031 26.6271C33.3315 26.7228 33.1426 26.7836 32.9473 26.8058C32.4378 26.8676 31.9645 27.1002 31.6049 27.4656C31.2479 27.8344 31.0285 28.3143 30.9835 28.825C30.9556 29.1459 30.9964 29.4668 31.1007 29.7673C31.294 29.9599 31.4315 30.2019 31.4975 30.4674ZM28.0118 29.7143C22.7507 31.0489 18.0739 34.5719 13.4296 40.66C13.3423 40.7735 13.2333 40.8687 13.1089 40.9398C12.9846 41.003 12.8476 41.0371 12.7082 41.0398C12.5764 41.0705 12.4393 41.0705 12.3075 41.0398C12.1705 40.9983 12.0462 40.9226 11.9467 40.8199L7.25764 36.1218C7.15535 36.0259 7.07357 35.9103 7.01718 35.782C6.99929 35.6493 6.99929 35.5148 7.01718 35.3821C7.03593 35.237 7.07634 35.0955 7.13729 34.9623C7.20174 34.845 7.29056 34.7428 7.39781 34.6624C13.5385 30.0137 17.0748 25.3326 18.388 20.0627C18.6231 20.094 18.861 20.1095 19.1001 20.1086L19.6412 20.1286C20.1403 20.0864 20.6269 19.9725 21.0868 19.7932C21.4108 19.9824 21.7289 20.1804 22.0407 20.3869L19.7819 22.6274C19.5004 22.9086 19.3423 23.2897 19.3423 23.687C19.3423 24.0843 19.5004 24.4654 19.7819 24.7466C19.9237 24.8882 20.0923 25.0001 20.2782 25.0757C20.464 25.1512 20.6631 25.1888 20.8638 25.1864C21.0613 25.1873 21.257 25.1489 21.4394 25.0734C21.6218 24.9978 21.7872 24.8867 21.9259 24.7466L24.4331 22.2453C24.9229 22.6891 25.3904 23.1568 25.8339 23.6468L23.3287 26.1461C23.0473 26.4272 22.8892 26.8083 22.8892 27.2056C22.8892 27.603 23.0473 27.9841 23.3287 28.2652C23.4668 28.4063 23.632 28.518 23.8145 28.5936C23.9971 28.6692 24.193 28.7071 24.3906 28.705C24.5881 28.7059 24.7838 28.6675 24.9662 28.592C25.1486 28.5165 25.314 28.4054 25.4527 28.2652L27.6877 26.0355C27.9163 26.3813 28.1345 26.7347 28.3419 27.0953C28.1598 27.5565 28.043 28.0444 27.9977 28.5451C27.9575 28.9367 27.9628 29.3289 28.0118 29.7143Z" fill="#006FB9"/>
</svg>
