<svg width="48" height="49" viewBox="0 0 48 49" fill="none" xmlns="http://www.w3.org/2000/svg">
<path d="M10.4333 36.0137C9.60492 36.0137 8.93335 36.6852 8.93335 37.5137C8.93335 38.3421 9.60492 39.0137 10.4333 39.0137H15.3667C16.1951 39.0137 16.8667 38.3421 16.8667 37.5137C16.8667 36.6852 16.1951 36.0137 15.3667 36.0137H10.4333Z" fill="#006FB9"/>
<path fill-rule="evenodd" clip-rule="evenodd" d="M19.3335 13.2724V23.3303C19.9264 23.4636 20.47 23.7693 20.8968 24.2108C21.4806 24.8148 21.8 25.6234 21.8 26.4563V41.7666C21.8 42.3739 21.5673 42.9662 21.1377 43.4106C20.7064 43.8568 20.1104 44.1172 19.4778 44.1172H6.32222C5.68961 44.1172 5.09362 43.8568 4.66234 43.4106C4.23273 42.9662 4 42.3739 4 41.7666V26.4563C4 25.6234 4.31936 24.8148 4.90316 24.2108C5.33008 23.7692 5.87379 23.4635 6.4668 23.3303V6.89305C6.4668 6.38783 6.6026 5.88934 6.8633 5.45298C7.12422 5.01624 7.50187 4.65623 7.95943 4.41956C8.41751 4.18262 8.93417 4.0807 9.4502 4.12883C9.96609 4.17695 10.4539 4.37244 10.8596 4.68724L17.7663 10.0459C18.2583 10.4276 18.6532 10.919 18.9236 11.4784C19.1939 12.0377 19.3335 12.6517 19.3335 13.2724ZM9.4668 7.40365L15.9273 12.4161C16.048 12.5098 16.1504 12.6347 16.2225 12.784C16.2947 12.9333 16.3335 13.1007 16.3335 13.2724V23.2551H9.4668V7.40365ZM7.06013 26.2959C7.09144 26.2635 7.12286 26.2551 7.14444 26.2551H18.6556C18.6771 26.2551 18.7086 26.2635 18.7399 26.2959C18.7729 26.33 18.8 26.3868 18.8 26.4563V41.1172H7V26.4563C7 26.3868 7.02715 26.33 7.06013 26.2959Z" fill="#006FB9"/>
<path fill-rule="evenodd" clip-rule="evenodd" d="M26.2 23.0539C26.2 21.8041 27.1921 20.7034 28.5222 20.7034H41.6777C43.0078 20.7034 44 21.8041 44 23.0539V41.7666C44 43.0164 43.0078 44.1172 41.6777 44.1172H28.5222C27.1921 44.1172 26.2 43.0164 26.2 41.7666V23.0539ZM29.2 36.0137V33.9104H41V36.0137H29.2ZM41 39.0137V41.1172H29.2V39.0137H41ZM41 30.9104H29.2V23.7034H41V30.9104Z" fill="#006FB9"/>
</svg>
