<svg width="48" height="49" viewBox="0 0 48 49" fill="none" xmlns="http://www.w3.org/2000/svg">
<path d="M43.204 34.5132C42.696 34.0012 41.992 33.7072 41.268 33.7072H36.688C38.29 32.0092 39.596 30.0372 40.418 27.8412C41.74 24.3092 41.886 20.3712 40.83 16.7512C39.774 13.1292 37.532 9.88919 34.518 7.62719C31.504 5.36319 27.77 4.11719 24.002 4.11719C20.234 4.11719 16.498 5.36519 13.484 7.62919C10.47 9.89119 8.228 13.1312 7.172 16.7532C6.116 20.3732 6.262 24.3132 7.586 27.8432C8.408 30.0372 9.714 32.0112 11.316 33.7092H6.732C6.002 33.7092 5.314 33.9952 4.8 34.5112C4.292 35.0192 4 35.7232 4 36.4432V37.6792C4 39.3752 4.686 41.0352 5.884 42.2332C7.098 43.4472 8.716 44.1172 10.432 44.1172H37.566C39.262 44.1172 40.92 43.4292 42.116 42.2312C43.312 41.0332 43.998 39.3732 43.998 37.6792V36.4432C44 35.7232 43.71 35.0172 43.204 34.5132ZM10.394 26.7912C9.298 23.8612 9.176 20.5952 10.052 17.5912C10.928 14.5892 12.786 11.9032 15.284 10.0272C20.278 6.27719 27.718 6.27519 32.716 10.0272C35.214 11.9032 37.074 14.5892 37.95 17.5912C38.826 20.5932 38.704 23.8612 37.608 26.7892C36.556 29.5972 34.61 32.0252 32.136 33.7072H30.87C30.422 33.7072 29.976 33.8212 29.556 34.0472C29.16 34.2672 28.82 34.5892 28.562 34.9972C28.046 35.8432 27.65 36.1592 27.704 36.1792L20.448 36.2032C20.348 36.1592 19.95 35.8432 19.432 34.9832C19.188 34.5952 18.848 34.2712 18.426 34.0372C18.028 33.8232 17.582 33.7092 17.122 33.7092H15.866C13.392 32.0252 11.446 29.5972 10.394 26.7912ZM41 37.6772C41 38.5832 40.632 39.4692 39.992 40.1132C39.356 40.7492 38.47 41.1172 37.566 41.1172H10.434C9.518 41.1172 8.654 40.7592 8.008 40.1112C7.368 39.4712 7.002 38.5832 7.002 37.6772V36.7072H16.976C17.996 38.3472 19.116 39.1772 20.304 39.1772H27.71C28.884 39.1772 30.002 38.3452 31.036 36.7072H41.004V37.6772H41Z" fill="#006FB9"/>
<path d="M32.912 30.5412C35.288 28.1572 36.6 24.9892 36.6 21.6212C36.6 18.2532 35.29 15.0832 32.91 12.7012C30.532 10.3172 27.366 9.00319 23.998 9.00319C20.632 9.00319 17.468 10.3152 15.088 12.7012C12.71 15.0832 11.4 18.2512 11.4 21.6212C11.4 24.9912 12.71 28.1592 15.09 30.5412C17.47 32.9252 20.634 34.2392 24 34.2392C27.366 34.2392 30.532 32.9272 32.912 30.5412ZM14.4 21.6212C14.4 19.0892 15.426 16.6112 17.212 14.8212C19.026 13.0052 21.436 12.0052 24 12.0052C26.564 12.0052 28.976 13.0052 30.788 14.8212C32.576 16.6112 33.6 19.0912 33.6 21.6212C33.6 24.1512 32.574 26.6312 30.788 28.4212C28.976 30.2392 26.564 31.2392 24 31.2392C21.436 31.2392 19.026 30.2392 17.212 28.4212C15.426 26.6312 14.4 24.1532 14.4 21.6212Z" fill="#006FB9"/>
</svg>
