<svg width="48" height="49" viewBox="0 0 48 49" fill="none" xmlns="http://www.w3.org/2000/svg">
<path d="M40.8579 24.9176C40.5119 24.2356 39.9839 23.6616 39.3359 23.2536C38.6859 22.8476 37.9379 22.6276 37.1519 22.6176H34.1359V20.6816H38.4939C39.2259 20.6816 39.9439 20.4776 40.5739 20.0876C41.2019 19.6956 41.7059 19.1376 42.0739 18.3816L43.8059 14.1096C43.9499 13.7936 44.0159 13.4436 43.9959 13.0756C43.9679 12.7216 43.8579 12.3796 43.6659 12.0796C43.4739 11.7836 43.2099 11.5376 42.9179 11.3736C42.6059 11.1976 42.2539 11.1016 41.8819 11.0996H6.10395C5.75195 11.1056 5.40195 11.1996 5.08995 11.3716C4.78195 11.5456 4.51995 11.7936 4.32195 12.1076C4.13595 12.4096 4.02595 12.7536 4.00795 13.0896C3.98395 13.4436 4.05195 13.7996 4.17195 14.0556L5.97195 18.4796C6.29795 19.1436 6.80395 19.6996 7.43195 20.0896C8.05595 20.4776 8.77394 20.6816 9.51794 20.6816H13.8619V22.6176H10.8419C10.0659 22.6196 9.30794 22.8356 8.64794 23.2416C7.98994 23.6496 7.45595 24.2276 7.06795 24.9996L4.43995 31.0656C4.12195 31.7036 3.97195 32.4196 4.00595 33.1316C4.03995 33.8416 4.25595 34.5396 4.63195 35.1476C5.00795 35.7556 5.53595 36.2596 6.15995 36.6056C6.78395 36.9516 7.48994 37.1336 8.19994 37.1336H39.7979C40.5099 37.1336 41.2179 36.9496 41.8379 36.6056C42.4619 36.2596 42.9919 35.7556 43.3699 35.1476C43.7459 34.5396 43.9619 33.8436 43.9939 33.1316C44.0279 32.4236 43.8779 31.7116 43.5899 31.1296L40.8579 24.9176ZM9.50795 17.6816C9.33595 17.6816 9.16395 17.6336 9.01395 17.5396C8.86395 17.4476 8.74195 17.3136 8.70795 17.2516L7.42795 14.1016H40.5739L39.3359 17.1576C39.2599 17.3156 39.1379 17.4476 38.9939 17.5376C38.8419 17.6316 38.6679 17.6816 38.4939 17.6816H9.50795ZM16.8639 20.6816H31.1379V22.6176H16.8639V20.6816ZM40.8159 33.5656C40.7079 33.7396 40.5599 33.8816 40.3799 33.9816C40.2019 34.0796 40.0019 34.1316 39.7959 34.1316H8.19795C7.99395 34.1316 7.79195 34.0796 7.61395 33.9796C7.43795 33.8816 7.28795 33.7396 7.17995 33.5656C7.07195 33.3936 7.00995 33.1956 6.99995 32.9916C6.99195 32.7876 7.03395 32.5836 7.15795 32.3316L9.78194 26.2756C9.88194 26.0776 10.0339 25.9116 10.2239 25.7956C10.4119 25.6796 10.6279 25.6196 10.8459 25.6176H15.3539C15.3579 25.6176 15.3599 25.6196 15.3639 25.6196C15.3679 25.6196 15.3699 25.6176 15.3739 25.6176H32.6279C32.6319 25.6176 32.6339 25.6196 32.6379 25.6196C32.6419 25.6196 32.6439 25.6176 32.6479 25.6176H37.1319C37.3479 25.6216 37.5619 25.6836 37.7459 25.7996C37.9339 25.9176 38.0839 26.0816 38.1479 26.2016L40.8699 32.3996C40.9619 32.5856 41.0059 32.7916 40.9959 32.9936C40.9859 33.1956 40.9239 33.3936 40.8159 33.5656Z" fill="#006FB9"/>
<path d="M20.2979 29.1996H12.8959C12.0679 29.1996 11.3959 29.8716 11.3959 30.6996C11.3959 31.5276 12.0679 32.1996 12.8959 32.1996H20.2979C21.1259 32.1996 21.7979 31.5276 21.7979 30.6996C21.7979 29.8716 21.1259 29.1996 20.2979 29.1996Z" fill="#006FB9"/>
<path d="M28.3179 32.2156C29.4877 32.2156 30.4359 31.2673 30.4359 30.0976C30.4359 28.9279 29.4877 27.9796 28.3179 27.9796C27.1482 27.9796 26.1999 28.9279 26.1999 30.0976C26.1999 31.2673 27.1482 32.2156 28.3179 32.2156Z" fill="#006FB9"/>
<path d="M34.5039 32.2156C35.6737 32.2156 36.6219 31.2673 36.6219 30.0976C36.6219 28.9279 35.6737 27.9796 34.5039 27.9796C33.3342 27.9796 32.3859 28.9279 32.3859 30.0976C32.3859 31.2673 33.3342 32.2156 34.5039 32.2156Z" fill="#006FB9"/>
</svg>
