<svg width="97" height="97" viewBox="0 0 97 97" fill="none" xmlns="http://www.w3.org/2000/svg">
<path d="M68.2255 81.9292C68.2575 81.8092 68.3315 81.7132 68.3895 81.6052C68.1315 80.7332 67.9075 79.8492 67.7555 78.9552C67.7415 78.8712 67.7335 78.7852 67.7335 78.7012V74.3112L58.7375 65.1392C57.6775 64.0552 57.1055 62.6232 57.1235 61.1052C57.1455 59.5892 57.7515 58.1752 58.8355 57.1192C59.9035 56.0772 61.3575 55.4812 62.8675 55.5112C64.3775 55.5312 65.7935 56.1372 66.8515 57.2212L70.2655 60.7172V46.2032C70.2655 45.6192 70.6035 45.0892 71.1355 44.8432C71.3275 44.7552 71.5275 44.7232 71.7315 44.7192V30.5672C71.7315 28.7992 70.2975 27.3672 68.5315 27.3672H34.0255L38.5975 32.0332C39.1235 32.5692 39.5275 33.1932 39.8055 33.8912C40.0835 34.5872 40.2155 35.3172 40.2075 36.0652C40.1975 36.8132 40.0435 37.5412 39.7495 38.2292C39.4555 38.9152 39.0335 39.5292 38.4975 40.0532C37.9595 40.5752 37.3355 40.9792 36.6415 41.2572C35.9695 41.5252 35.2635 41.6612 34.5395 41.6612C34.5155 41.6612 34.4915 41.6612 34.4675 41.6612C33.7155 41.6512 32.9875 41.4952 32.3015 41.2012C31.6175 40.9072 31.0035 40.4852 30.4795 39.9492L29.6315 39.0812V76.8192C29.6315 77.7892 30.0095 78.7012 30.6955 79.3892C31.3795 80.0752 32.2915 80.4512 33.2635 80.4512H58.9315C59.7595 80.4512 60.4315 81.1232 60.4315 81.9512H68.2235C68.2255 81.9432 68.2235 81.9352 68.2255 81.9292Z" fill="white"/>
<path d="M53.7724 13.9282C56.0564 12.4022 58.7444 11.5862 61.4924 11.5862C62.2964 11.5862 62.9524 10.9542 62.9924 10.1602C70.2964 10.8682 76.1064 16.6822 76.8124 23.9902C76.0204 24.0322 75.3924 24.6862 75.3924 25.4882C75.3924 28.2382 74.5784 30.9242 73.0504 33.2102C71.5224 35.4962 69.3504 37.2782 66.8124 38.3302C64.2744 39.3822 61.4784 39.6582 58.7804 39.1222C56.0844 38.5862 53.6084 37.2622 51.6624 35.3182C49.7184 33.3742 48.3964 30.8982 47.8604 28.2002C47.3224 25.5042 47.5984 22.7082 48.6524 20.1682C49.7044 17.6282 51.4844 15.4562 53.7724 13.9282Z" fill="#9CD7FF"/>
<path d="M82.1833 77.5273L71.8073 82.9073L73.9333 86.2873C74.0873 86.5313 74.1353 86.8013 74.1393 87.0693L80.1653 84.9553L85.9293 82.9333L82.1833 77.5273Z" fill="#047FD0"/>
<path d="M71.072 79.9046L80.53 75.0006V60.3026C80.616 56.7126 77.368 53.1226 73.262 49.4766V64.4006C73.262 65.0106 72.892 65.5586 72.328 65.7886C71.764 66.0146 71.116 65.8846 70.69 65.4486L64.702 59.3166C64.21 58.8126 63.526 58.5186 62.826 58.5106C62.812 58.5106 62.8 58.5106 62.788 58.5106C62.096 58.5106 61.42 58.7846 60.926 59.2666C60.424 59.7566 60.13 60.4426 60.12 61.1446C60.11 61.8546 60.38 62.5286 60.876 63.0366L70.3 72.6446C70.576 72.9266 70.73 73.3026 70.73 73.6946V78.5686C70.81 79.0226 70.96 79.4586 71.072 79.9046Z" fill="#F7D3BF"/>
<path d="M11.5182 14.6369L15.1542 19.8869L25.5302 14.5049L23.4042 11.1249C23.2582 10.8929 23.1842 10.6349 23.1742 10.3789L17.0622 12.5229L11.5182 14.6369Z" fill="#FFDD35"/>
<path d="M26.573 31.6531L32.627 37.8551C32.873 38.1071 33.163 38.3071 33.487 38.4451C33.809 38.5851 34.151 38.6571 34.507 38.6631C34.855 38.6531 35.203 38.6031 35.529 38.4731C35.857 38.3431 36.153 38.1511 36.405 37.9051C36.657 37.6591 36.855 37.3711 36.993 37.0471C37.133 36.7231 37.205 36.3811 37.209 36.0291C37.215 35.6751 37.149 35.3311 37.019 35.0031C36.889 34.6751 36.699 34.3831 36.453 34.1331L27.041 24.5271C26.765 24.2471 26.613 23.8691 26.613 23.4771V18.5991C26.545 18.2151 26.455 17.8331 26.363 17.4531L16.801 22.4131V36.8651C16.699 41.2231 21.573 45.6251 26.633 49.9031V36.0071L24.427 33.7491C23.847 33.1571 23.859 32.2071 24.453 31.6271C25.045 31.0491 25.995 31.0611 26.573 31.6531Z" fill="#F7D3BF"/>
<path d="M52.0135 70.6179H38.3995C37.5715 70.6179 36.8995 69.9459 36.8995 69.1179C36.8995 68.2899 37.5715 67.6179 38.3995 67.6179H52.0135C52.8415 67.6179 53.5135 68.2899 53.5135 69.1179C53.5135 69.9459 52.8415 70.6179 52.0135 70.6179Z" fill="black"/>
<path d="M43.5335 57.7859H38.4015C37.5735 57.7859 36.9015 57.1139 36.9015 56.2859C36.9015 55.4579 37.5735 54.7859 38.4015 54.7859H43.5335C44.3615 54.7859 45.0335 55.4579 45.0335 56.2859C45.0335 57.1139 44.3615 57.7859 43.5335 57.7859Z" fill="black"/>
<path d="M61.4935 11.5859C58.7455 11.5859 56.0575 12.4019 53.7735 13.9279C51.4855 15.4559 49.7055 17.6259 48.6535 20.1659C47.6015 22.7059 47.3255 25.4999 47.8615 28.1979C48.3975 30.8939 49.7215 33.3699 51.6635 35.3159C53.6095 37.2599 56.0855 38.5839 58.7815 39.1199C61.4795 39.6559 64.2735 39.3799 66.8135 38.3279C69.3535 37.2759 71.5235 35.4939 73.0515 33.2079C74.5795 30.9219 75.3935 28.2339 75.3935 25.4859C75.3935 24.6579 76.0655 23.9859 76.8935 23.9859C77.7235 23.9859 78.3935 24.6579 78.3935 25.4859C78.3935 28.8279 77.4035 32.0959 75.5455 34.8759C73.6875 37.6539 71.0495 39.8199 67.9615 41.0999C64.8735 42.3799 61.4755 42.7139 58.1955 42.0619C54.9175 41.4099 51.9055 39.7999 49.5435 37.4379C47.1795 35.0739 45.5695 32.0619 44.9195 28.7839C44.2675 25.5059 44.6015 22.1079 45.8795 19.0199C47.1575 15.9319 49.3255 13.2919 52.1055 11.4359C54.8835 9.57794 58.1535 8.58594 61.4935 8.58594C62.3235 8.58594 62.9935 9.25794 62.9935 10.0859C62.9935 10.9139 62.3235 11.5859 61.4935 11.5859Z" fill="black"/>
<path d="M77.9575 12.8719C78.5435 13.4579 78.5435 14.4079 77.9575 14.9939L63.9275 29.0239C63.6095 29.3439 63.2295 29.5979 62.8135 29.7719C62.3955 29.9459 61.9475 30.0339 61.4975 30.0339C61.0435 30.0339 60.5955 29.9459 60.1795 29.7719C59.7635 29.5999 59.3855 29.3459 59.0635 29.0239L54.6555 24.6099C54.0695 24.0239 54.0695 23.0739 54.6555 22.4879C55.2415 21.9039 56.1935 21.9039 56.7775 22.4879L61.1915 26.9059C61.2335 26.9459 61.2795 26.9779 61.3315 26.9999C61.3835 27.0219 61.4395 27.0319 61.4975 27.0319C61.5515 27.0319 61.6095 27.0219 61.6615 26.9999C61.7135 26.9779 61.7615 26.9459 61.8015 26.9059L61.8035 26.9019L75.8355 12.8719C76.4215 12.2859 77.3715 12.2859 77.9575 12.8719Z" fill="black"/>
<path d="M88.3975 81.2319L83.8975 74.7319C83.7955 74.5859 83.6715 74.4659 83.5315 74.3659V60.3379C83.6635 54.7559 78.7195 50.1139 72.7335 45.0559C72.2835 44.6799 71.6635 44.5959 71.1335 44.8419C70.6015 45.0879 70.2635 45.6179 70.2635 46.2019V60.7159L66.8495 57.2199C65.7915 56.1359 64.3755 55.5279 62.8655 55.5099C61.3555 55.4779 59.9035 56.0759 58.8335 57.1179C57.7495 58.1739 57.1415 59.5879 57.1215 61.1039C57.1015 62.6219 57.6735 64.0539 58.7355 65.1379L67.7315 74.3099V78.6999C67.7315 78.7839 67.7395 78.8699 67.7535 78.9539C67.9055 79.8479 68.1295 80.7339 68.3875 81.6039C68.3295 81.7119 68.2555 81.8099 68.2235 81.9279C68.1135 82.3339 68.1795 82.7659 68.4015 83.1219L71.3955 87.8839C71.6815 88.3379 72.1675 88.5859 72.6675 88.5859C72.9395 88.5859 73.2155 88.5119 73.4635 88.3559C74.1655 87.9139 74.3755 86.9879 73.9335 86.2879L71.8075 82.9079L82.1835 77.5279L85.9335 82.9419C86.4015 83.6239 87.3375 83.7999 88.0195 83.3199C88.7015 82.8479 88.8715 81.9139 88.3975 81.2319ZM71.0735 79.9059C70.9615 79.4579 70.8115 79.0239 70.7315 78.5699V73.6959C70.7315 73.3039 70.5775 72.9259 70.3015 72.6459L60.8775 63.0379C60.3815 62.5299 60.1115 61.8559 60.1215 61.1459C60.1315 60.4419 60.4255 59.7579 60.9275 59.2679C61.4215 58.7859 62.0975 58.5119 62.7895 58.5119C62.8015 58.5119 62.8135 58.5119 62.8275 58.5119C63.5295 58.5199 64.2115 58.8139 64.7035 59.3179L70.6915 65.4499C71.1175 65.8859 71.7655 66.0159 72.3295 65.7899C72.8935 65.5599 73.2635 65.0099 73.2635 64.4019V49.4779C77.3695 53.1239 80.6175 56.7139 80.5315 60.3039V75.0019L71.0735 79.9059Z" fill="black"/>
<path d="M58.9315 80.4499H33.2635C32.2915 80.4499 31.3795 80.0739 30.6955 79.3879C30.0095 78.6999 29.6315 77.7879 29.6315 76.8179V39.0799L30.4795 39.9479C31.0015 40.4839 31.6155 40.9059 32.3015 41.1999C32.9875 41.4939 33.7155 41.6499 34.4675 41.6599C34.4915 41.6599 34.5155 41.6599 34.5395 41.6599C35.2635 41.6599 35.9695 41.5239 36.6415 41.2559C37.3355 40.9779 37.9595 40.5739 38.4955 40.0519C39.0315 39.5299 39.4535 38.9159 39.7475 38.2279C40.0415 37.5399 40.1975 36.8119 40.2055 36.0639C40.2135 35.3159 40.0795 34.5859 39.8035 33.8899C39.5235 33.1919 39.1195 32.5679 38.5955 32.0319L29.6095 22.8639V18.4699C29.6095 18.3859 29.6035 18.3019 29.5875 18.2199C29.4435 17.3739 29.2355 16.5359 28.9955 15.7059C29.0315 15.6279 29.0895 15.5619 29.1115 15.4779C29.2215 15.0719 29.1575 14.6419 28.9335 14.2859L25.9395 9.52594C25.4975 8.82394 24.5715 8.61394 23.8715 9.05594C23.1715 9.49794 22.9595 10.4239 23.3995 11.1239L25.5255 14.5039L15.1535 19.8859L11.4055 14.4719C10.9335 13.7899 9.99953 13.6199 9.31953 14.0919C8.63553 14.5639 8.46553 15.4999 8.93753 16.1799L13.4375 22.6799C13.5375 22.8239 13.6615 22.9399 13.7975 23.0379V36.8299C13.6535 42.9079 19.8255 48.0999 25.7935 53.1219L26.6295 53.8279V76.8179C26.6295 78.5899 27.3195 80.2559 28.5715 81.5099C29.8215 82.7619 31.4875 83.4519 33.2615 83.4519H58.9295C59.7575 83.4519 60.4295 82.7799 60.4295 81.9519C60.4295 81.1239 59.7595 80.4499 58.9315 80.4499ZM16.7975 36.8639V22.4119L26.3615 17.4519C26.4515 17.8319 26.5415 18.2139 26.6095 18.5979V23.4759C26.6095 23.8679 26.7635 24.2459 27.0375 24.5259L36.4515 34.1319C36.6955 34.3819 36.8855 34.6739 37.0175 35.0019C37.1475 35.3299 37.2115 35.6739 37.2075 36.0279C37.2035 36.3779 37.1295 36.7219 36.9915 37.0459C36.8535 37.3699 36.6555 37.6579 36.4035 37.9039C36.1515 38.1499 35.8575 38.3399 35.5275 38.4719C35.2015 38.6019 34.8535 38.6519 34.5055 38.6619C34.1515 38.6579 33.8075 38.5839 33.4855 38.4439C33.1615 38.3059 32.8735 38.1079 32.6255 37.8539L26.5715 31.6519C25.9935 31.0619 25.0435 31.0479 24.4495 31.6259C23.8575 32.2039 23.8455 33.1539 24.4235 33.7479L26.6295 36.0059V49.9019C21.5715 45.6259 16.6955 41.2219 16.7975 36.8639Z" fill="black"/>
</svg>
